<svg version="1.1" viewBox="0.0 0.0 553.0393700787401 478.15748031496065" fill="none" stroke="none" stroke-linecap="square" stroke-miterlimit="10" xmlns:xlink="http://www.w3.org/1999/xlink" xmlns="http://www.w3.org/2000/svg"><clipPath id="p.0"><path d="m0 0l553.03937 0l0 478.15747l-553.03937 0l0 -478.15747z" clip-rule="nonzero"/></clipPath><g clip-path="url(#p.0)"><path fill="#000000" fill-opacity="0.0" d="m0 0l553.03937 0l0 478.15747l-553.03937 0z" fill-rule="evenodd"/><path fill="#cfe2f3" d="m37.496063 366.39108l0 0c0 7.2840576 27.800652 13.188965 62.09449 13.188965c34.29383 0 62.09449 -5.904907 62.09449 -13.188965l0 79.13385c0 7.2840576 -27.80066 13.188965 -62.09449 13.188965c-34.29384 0 -62.09449 -5.904907 -62.09449 -13.188965z" fill-rule="evenodd"/><path fill="#e2edf7" d="m37.496063 366.39108l0 0c0 -7.284088 27.800652 -13.188995 62.09449 -13.188995c34.29383 0 62.09449 5.904907 62.09449 13.188995l0 0c0 7.2840576 -27.80066 13.188965 -62.09449 13.188965c-34.29384 0 -62.09449 -5.904907 -62.09449 -13.188965z" fill-rule="evenodd"/><path fill="#000000" fill-opacity="0.0" d="m161.68504 366.39108l0 0c0 7.2840576 -27.80066 13.188965 -62.09449 13.188965c-34.29384 0 -62.09449 -5.904907 -62.09449 -13.188965l0 0c0 -7.284088 27.800652 -13.188995 62.09449 -13.188995c34.29383 0 62.09449 5.904907 62.09449 13.188995l0 79.13385c0 7.2840576 -27.80066 13.188965 -62.09449 13.188965c-34.29384 0 -62.09449 -5.904907 -62.09449 -13.188965l0 -79.13385" fill-rule="evenodd"/><path stroke="#000000" stroke-width="1.0" stroke-linejoin="round" stroke-linecap="butt" d="m161.68504 366.39108l0 0c0 7.2840576 -27.80066 13.188965 -62.09449 13.188965c-34.29384 0 -62.09449 -5.904907 -62.09449 -13.188965l0 0c0 -7.284088 27.800652 -13.188995 62.09449 -13.188995c34.29383 0 62.09449 5.904907 62.09449 13.188995l0 79.13385c0 7.2840576 -27.80066 13.188965 -62.09449 13.188965c-34.29384 0 -62.09449 -5.904907 -62.09449 -13.188965l0 -79.13385" fill-rule="evenodd"/><path fill="#000000" d="m50.21528 419.4725l0 -13.359375l5.046875 0q1.328125 0 2.03125 0.125q0.96875 0.171875 1.640625 0.640625q0.671875 0.453125 1.078125 1.28125q0.40625 0.828125 0.40625 1.828125q0 1.703125 -1.09375 2.890625q-1.078125 1.171875 -3.921875 1.171875l-3.421875 0l0 5.421875l-1.765625 0zm1.765625 -7.0l3.453125 0q1.71875 0 2.4375 -0.640625q0.71875 -0.640625 0.71875 -1.796875q0 -0.84375 -0.421875 -1.4375q-0.421875 -0.59375 -1.125 -0.78125q-0.4375 -0.125 -1.640625 -0.125l-3.421875 0l0 4.78125zm9.865448 2.15625q0 -2.6875 1.484375 -3.96875q1.25 -1.078125 3.046875 -1.078125q2.0 0 3.265625 1.3125q1.265625 1.296875 1.265625 3.609375q0 1.859375 -0.5625 2.9375q-0.5625 1.0625 -1.640625 1.65625q-1.0625 0.59375 -2.328125 0.59375q-2.03125 0 -3.28125 -1.296875q-1.25 -1.3125 -1.25 -3.765625zm1.6875 0q0 1.859375 0.796875 2.796875q0.8125 0.921875 2.046875 0.921875q1.21875 0 2.03125 -0.921875q0.8125 -0.9375 0.8125 -2.84375q0 -1.796875 -0.8125 -2.71875q-0.8125 -0.921875 -2.03125 -0.921875q-1.234375 0 -2.046875 0.921875q-0.796875 0.90625 -0.796875 2.765625zm8.641342 1.953125l1.625 -0.25q0.125 0.96875 0.75 1.5q0.625 0.515625 1.75 0.515625q1.125 0 1.671875 -0.453125q0.546875 -0.46875 0.546875 -1.09375q0 -0.546875 -0.484375 -0.875q-0.328125 -0.21875 -1.671875 -0.546875q-1.8125 -0.46875 -2.515625 -0.796875q-0.6875 -0.328125 -1.046875 -0.90625q-0.359375 -0.59375 -0.359375 -1.3125q0 -0.640625 0.296875 -1.1875q0.296875 -0.5625 0.8125 -0.921875q0.375 -0.28125 1.03125 -0.46875q0.671875 -0.203125 1.421875 -0.203125q1.140625 0 2.0 0.328125q0.859375 0.328125 1.265625 0.890625q0.421875 0.5625 0.578125 1.5l-1.609375 0.21875q-0.109375 -0.75 -0.640625 -1.171875q-0.515625 -0.421875 -1.46875 -0.421875q-1.140625 0 -1.625 0.375q-0.46875 0.375 -0.46875 0.875q0 0.3125 0.1875 0.578125q0.203125 0.265625 0.640625 0.4375q0.234375 0.09375 1.4375 0.421875q1.75 0.453125 2.4375 0.75q0.6875 0.296875 1.078125 0.859375q0.390625 0.5625 0.390625 1.40625q0 0.828125 -0.484375 1.546875q-0.46875 0.71875 -1.375 1.125q-0.90625 0.390625 -2.046875 0.390625q-1.875 0 -2.875 -0.78125q-0.984375 -0.78125 -1.25 -2.328125zm13.5625 1.421875l0.234375 1.453125q-0.6875 0.140625 -1.234375 0.140625q-0.890625 0 -1.390625 -0.28125q-0.484375 -0.28125 -0.6875 -0.734375q-0.203125 -0.46875 -0.203125 -1.9375l0 -5.578125l-1.203125 0l0 -1.265625l1.203125 0l0 -2.390625l1.625 -0.984375l0 3.375l1.65625 0l0 1.265625l-1.65625 0l0 5.671875q0 0.6875 0.078125 0.890625q0.09375 0.203125 0.28125 0.328125q0.203125 0.109375 0.578125 0.109375q0.265625 0 0.71875 -0.0625zm1.2926788 2.265625l1.59375 0.234375q0.109375 0.75 0.5625 1.078125q0.609375 0.453125 1.671875 0.453125q1.140625 0 1.75 -0.453125q0.625 -0.453125 0.84375 -1.265625q0.125 -0.5 0.109375 -2.109375q-1.0625 1.265625 -2.671875 1.265625q-2.0 0 -3.09375 -1.4375q-1.09375 -1.4375 -1.09375 -3.453125q0 -1.390625 0.5 -2.5625q0.515625 -1.171875 1.453125 -1.796875q0.953125 -0.640625 2.25 -0.640625q1.703125 0 2.8125 1.375l0 -1.15625l1.515625 0l0 8.359375q0 2.265625 -0.46875 3.203125q-0.453125 0.9375 -1.453125 1.484375q-0.984375 0.546875 -2.453125 0.546875q-1.71875 0 -2.796875 -0.78125q-1.0625 -0.765625 -1.03125 -2.34375zm1.359375 -5.8125q0 1.90625 0.75 2.78125q0.765625 0.875 1.90625 0.875q1.125 0 1.890625 -0.859375q0.765625 -0.875 0.765625 -2.734375q0 -1.78125 -0.796875 -2.671875q-0.78125 -0.90625 -1.890625 -0.90625q-1.09375 0 -1.859375 0.890625q-0.765625 0.875 -0.765625 2.625zm9.313217 5.015625l0 -9.671875l1.46875 0l0 1.46875q0.5625 -1.03125 1.03125 -1.359375q0.484375 -0.328125 1.0625 -0.328125q0.828125 0 1.6875 0.53125l-0.5625 1.515625q-0.609375 -0.359375 -1.203125 -0.359375q-0.546875 0 -0.96875 0.328125q-0.421875 0.328125 -0.609375 0.890625q-0.28125 0.875 -0.28125 1.921875l0 5.0625l-1.625 0zm12.853302 -3.109375l1.6875 0.203125q-0.40625 1.484375 -1.484375 2.3125q-1.078125 0.8125 -2.765625 0.8125q-2.125 0 -3.375 -1.296875q-1.234375 -1.3125 -1.234375 -3.671875q0 -2.453125 1.25 -3.796875q1.265625 -1.34375 3.265625 -1.34375q1.9375 0 3.15625 1.328125q1.234375 1.3125 1.234375 3.703125q0 0.15625 0 0.4375l-7.21875 0q0.09375 1.59375 0.90625 2.453125q0.8125 0.84375 2.015625 0.84375q0.90625 0 1.546875 -0.46875q0.640625 -0.484375 1.015625 -1.515625zm-5.390625 -2.65625l5.40625 0q-0.109375 -1.21875 -0.625 -1.828125q-0.78125 -0.953125 -2.03125 -0.953125q-1.125 0 -1.90625 0.765625q-0.765625 0.75 -0.84375 2.015625zm8.750717 1.46875l1.65625 -0.140625q0.125 1.0 0.546875 1.640625q0.4375 0.640625 1.34375 1.046875q0.921875 0.390625 2.0625 0.390625q1.0 0 1.78125 -0.296875q0.78125 -0.296875 1.15625 -0.8125q0.375 -0.53125 0.375 -1.15625q0 -0.625 -0.375 -1.09375q-0.359375 -0.46875 -1.1875 -0.796875q-0.546875 -0.203125 -2.390625 -0.640625q-1.828125 -0.453125 -2.5625 -0.84375q-0.96875 -0.5 -1.4375 -1.234375q-0.46875 -0.75 -0.46875 -1.671875q0 -1.0 0.578125 -1.875q0.578125 -0.890625 1.671875 -1.34375q1.109375 -0.453125 2.453125 -0.453125q1.484375 0 2.609375 0.484375q1.140625 0.46875 1.75 1.40625q0.609375 0.921875 0.65625 2.09375l-1.6875 0.125q-0.140625 -1.265625 -0.9375 -1.90625q-0.78125 -0.65625 -2.3125 -0.65625q-1.609375 0 -2.34375 0.59375q-0.734375 0.59375 -0.734375 1.421875q0 0.71875 0.53125 1.171875q0.5 0.46875 2.65625 0.96875q2.15625 0.484375 2.953125 0.84375q1.171875 0.53125 1.71875 1.359375q0.5625 0.828125 0.5625 1.90625q0 1.0625 -0.609375 2.015625q-0.609375 0.9375 -1.75 1.46875q-1.140625 0.515625 -2.578125 0.515625q-1.8125 0 -3.046875 -0.53125q-1.21875 -0.53125 -1.921875 -1.59375q-0.6875 -1.0625 -0.71875 -2.40625zm23.162315 2.859375q1.234375 0.859375 2.265625 1.25l-0.515625 1.21875q-1.4375 -0.515625 -2.875 -1.625q-1.484375 0.828125 -3.28125 0.828125q-1.8125 0 -3.296875 -0.875q-1.4687424 -0.875 -2.2656174 -2.453125q-0.796875 -1.59375 -0.796875 -3.578125q0 -1.984375 0.796875 -3.59375q0.8125 -1.625 2.2812424 -2.46875q1.484375 -0.859375 3.328125 -0.859375q1.84375 0 3.328125 0.890625q1.484375 0.875 2.265625 2.453125q0.78125 1.578125 0.78125 3.5625q0 1.65625 -0.5 2.96875q-0.5 1.3125 -1.515625 2.28125zm-3.890625 -2.25q1.53125 0.421875 2.515625 1.28125q1.5625 -1.421875 1.5625 -4.28125q0 -1.625 -0.546875 -2.828125q-0.546875 -1.21875 -1.609375 -1.875q-1.0625 -0.671875 -2.390625 -0.671875q-1.96875 0 -3.28125 1.359375q-1.296875 1.34375 -1.296875 4.03125q0 2.59375 1.28125 4.0q1.296875 1.390625 3.296875 1.390625q0.953125 0 1.78125 -0.359375q-0.828125 -0.53125 -1.75 -0.765625l0.4375 -1.28125zm8.198929 3.6875l0 -13.359375l1.78125 0l0 11.78125l6.5625 0l0 1.578125l-8.34375 0z" fill-rule="nonzero"/><path fill="#cfe2f3" d="m280.29922 384.79288l0 0c5.844757 0 10.582886 -4.7381287 10.582886 -10.582916l218.8342 0l0 0c0 5.8447876 4.738159 10.582916 10.582886 10.582916l0 42.33026c-5.8447266 0 -10.582886 4.7381287 -10.582886 10.582886l-218.8342 0c0 -5.844757 -4.7381287 -10.582886 -10.582886 -10.582886z" fill-rule="evenodd"/><path stroke="#000000" stroke-width="1.0" stroke-linejoin="round" stroke-linecap="butt" d="m280.29922 384.79288l0 0c5.844757 0 10.582886 -4.7381287 10.582886 -10.582916l218.8342 0l0 0c0 5.8447876 4.738159 10.582916 10.582886 10.582916l0 42.33026c-5.8447266 0 -10.582886 4.7381287 -10.582886 10.582886l-218.8342 0c0 -5.844757 -4.7381287 -10.582886 -10.582886 -10.582886z" fill-rule="evenodd"/><path fill="#000000" d="m320.25186 412.878l0 -13.359375l1.78125 0l0 6.625l6.625 -6.625l2.390625 0l-5.59375 5.421875l5.84375 7.9375l-2.328125 0l-4.765625 -6.765625l-2.171875 2.140625l0 4.625l-1.78125 0zm18.631073 -1.1875q-0.921875 0.765625 -1.765625 1.09375q-0.828125 0.3125 -1.796875 0.3125q-1.59375 0 -2.453125 -0.78125q-0.859375 -0.78125 -0.859375 -1.984375q0 -0.71875 0.328125 -1.296875q0.328125 -0.59375 0.84375 -0.9375q0.53125 -0.359375 1.1875 -0.546875q0.46875 -0.125 1.453125 -0.25q1.984375 -0.234375 2.921875 -0.5625q0.015625 -0.34375 0.015625 -0.421875q0 -1.0 -0.46875 -1.421875q-0.625 -0.546875 -1.875 -0.546875q-1.15625 0 -1.703125 0.40625q-0.546875 0.40625 -0.8125 1.421875l-1.609375 -0.21875q0.21875 -1.015625 0.71875 -1.640625q0.5 -0.640625 1.453125 -0.984375q0.953125 -0.34375 2.1875 -0.34375q1.25 0 2.015625 0.296875q0.78125 0.28125 1.140625 0.734375q0.375 0.4375 0.515625 1.109375q0.078125 0.421875 0.078125 1.515625l0 2.1875q0 2.28125 0.109375 2.890625q0.109375 0.59375 0.40625 1.15625l-1.703125 0q-0.265625 -0.515625 -0.328125 -1.1875zm-0.140625 -3.671875q-0.890625 0.375 -2.671875 0.625q-1.015625 0.140625 -1.4375 0.328125q-0.421875 0.1875 -0.65625 0.53125q-0.21875 0.34375 -0.21875 0.78125q0 0.65625 0.5 1.09375q0.5 0.4375 1.453125 0.4375q0.9375 0 1.671875 -0.40625q0.75 -0.421875 1.09375 -1.140625q0.265625 -0.5625 0.265625 -1.640625l0 -0.609375zm7.781952 3.390625l0.234375 1.453125q-0.6875 0.140625 -1.234375 0.140625q-0.890625 0 -1.390625 -0.28125q-0.484375 -0.28125 -0.6875 -0.734375q-0.203125 -0.46875 -0.203125 -1.9375l0 -5.578125l-1.203125 0l0 -1.265625l1.203125 0l0 -2.390625l1.625 -0.984375l0 3.375l1.65625 0l0 1.265625l-1.65625 0l0 5.671875q0 0.6875 0.078125 0.890625q0.09375 0.203125 0.28125 0.328125q0.203125 0.109375 0.578125 0.109375q0.265625 0 0.71875 -0.0625zm7.917694 0.28125q-0.921875 0.765625 -1.765625 1.09375q-0.828125 0.3125 -1.796875 0.3125q-1.59375 0 -2.453125 -0.78125q-0.859375 -0.78125 -0.859375 -1.984375q0 -0.71875 0.328125 -1.296875q0.328125 -0.59375 0.84375 -0.9375q0.53125 -0.359375 1.1875 -0.546875q0.46875 -0.125 1.453125 -0.25q1.984375 -0.234375 2.921875 -0.5625q0.015625 -0.34375 0.015625 -0.421875q0 -1.0 -0.46875 -1.421875q-0.625 -0.546875 -1.875 -0.546875q-1.15625 0 -1.703125 0.40625q-0.546875 0.40625 -0.8125 1.421875l-1.609375 -0.21875q0.21875 -1.015625 0.71875 -1.640625q0.5 -0.640625 1.453125 -0.984375q0.953125 -0.34375 2.1875 -0.34375q1.25 0 2.015625 0.296875q0.78125 0.28125 1.140625 0.734375q0.375 0.4375 0.515625 1.109375q0.078125 0.421875 0.078125 1.515625l0 2.1875q0 2.28125 0.109375 2.890625q0.109375 0.59375 0.40625 1.15625l-1.703125 0q-0.265625 -0.515625 -0.328125 -1.1875zm-0.140625 -3.671875q-0.890625 0.375 -2.671875 0.625q-1.015625 0.140625 -1.4375 0.328125q-0.421875 0.1875 -0.65625 0.53125q-0.21875 0.34375 -0.21875 0.78125q0 0.65625 0.5 1.09375q0.5 0.4375 1.453125 0.4375q0.9375 0 1.671875 -0.40625q0.75 -0.421875 1.09375 -1.140625q0.265625 -0.5625 0.265625 -1.640625l0 -0.609375zm4.203827 8.5625l0 -13.375l1.484375 0l0 1.25q0.53125 -0.734375 1.1875 -1.09375q0.671875 -0.375 1.625 -0.375q1.234375 0 2.171875 0.640625q0.953125 0.625 1.4375 1.796875q0.484375 1.15625 0.484375 2.546875q0 1.484375 -0.53125 2.671875q-0.53125 1.1875 -1.546875 1.828125q-1.015625 0.625 -2.140625 0.625q-0.8125 0 -1.46875 -0.34375q-0.65625 -0.34375 -1.0625 -0.875l0 4.703125l-1.640625 0zm1.484375 -8.484375q0 1.859375 0.75 2.765625q0.765625 0.890625 1.828125 0.890625q1.09375 0 1.875 -0.921875q0.78125 -0.9375 0.78125 -2.875q0 -1.84375 -0.765625 -2.765625q-0.75 -0.921875 -1.8125 -0.921875q-1.046875 0 -1.859375 0.984375q-0.796875 0.96875 -0.796875 2.84375zm15.219482 4.78125l0 -1.421875q-1.125 1.640625 -3.0625 1.640625q-0.859375 0 -1.609375 -0.328125q-0.734375 -0.328125 -1.09375 -0.828125q-0.359375 -0.5 -0.5 -1.21875q-0.109375 -0.46875 -0.109375 -1.53125l0 -5.984375l1.640625 0l0 5.359375q0 1.28125 0.109375 1.734375q0.15625 0.640625 0.65625 1.015625q0.5 0.375 1.234375 0.375q0.734375 0 1.375 -0.375q0.65625 -0.390625 0.921875 -1.03125q0.265625 -0.65625 0.265625 -1.890625l0 -5.1875l1.640625 0l0 9.671875l-1.46875 0zm4.000702 0l0 -13.359375l1.640625 0l0 13.359375l-1.640625 0zm7.7698364 -1.46875l0.234375 1.453125q-0.6875 0.140625 -1.234375 0.140625q-0.890625 0 -1.390625 -0.28125q-0.484375 -0.28125 -0.6875 -0.734375q-0.203125 -0.46875 -0.203125 -1.9375l0 -5.578125l-1.203125 0l0 -1.265625l1.203125 0l0 -2.390625l1.625 -0.984375l0 3.375l1.65625 0l0 1.265625l-1.65625 0l0 5.671875q0 0.6875 0.078125 0.890625q0.09375 0.203125 0.28125 0.328125q0.203125 0.109375 0.578125 0.109375q0.265625 0 0.71875 -0.0625zm4.4928894 1.46875l5.125 -13.359375l1.90625 0l5.46875 13.359375l-2.015625 0l-1.546875 -4.046875l-5.59375 0l-1.46875 4.046875l-1.875 0zm3.859375 -5.484375l4.53125 0l-1.40625 -3.703125q-0.625 -1.6875 -0.9375 -2.765625q-0.265625 1.28125 -0.71875 2.546875l-1.46875 3.921875zm10.052948 5.484375l0 -13.359375l5.046875 0q1.328125 0 2.03125 0.125q0.96875 0.171875 1.640625 0.640625q0.671875 0.453125 1.078125 1.28125q0.40625 0.828125 0.40625 1.828125q0 1.703125 -1.09375 2.890625q-1.078125 1.171875 -3.921875 1.171875l-3.421875 0l0 5.421875l-1.765625 0zm1.765625 -7.0l3.453125 0q1.71875 0 2.4375 -0.640625q0.71875 -0.640625 0.71875 -1.796875q0 -0.84375 -0.421875 -1.4375q-0.421875 -0.59375 -1.125 -0.78125q-0.4375 -0.125 -1.640625 -0.125l-3.421875 0l0 4.78125zm10.974823 7.0l0 -13.359375l1.765625 0l0 13.359375l-1.765625 0zm9.475983 -4.296875l1.65625 -0.140625q0.125 1.0 0.546875 1.640625q0.4375 0.640625 1.34375 1.046875q0.921875 0.390625 2.0625 0.390625q1.0 0 1.78125 -0.296875q0.78125 -0.296875 1.15625 -0.8125q0.375 -0.53125 0.375 -1.15625q0 -0.625 -0.375 -1.09375q-0.359375 -0.46875 -1.1875 -0.796875q-0.546875 -0.203125 -2.390625 -0.640625q-1.828125 -0.453125 -2.5625 -0.84375q-0.96875 -0.5 -1.4375 -1.234375q-0.46875 -0.75 -0.46875 -1.671875q0 -1.0 0.578125 -1.875q0.578125 -0.890625 1.671875 -1.34375q1.109375 -0.453125 2.453125 -0.453125q1.484375 0 2.609375 0.484375q1.140625 0.46875 1.75 1.40625q0.609375 0.921875 0.65625 2.09375l-1.6875 0.125q-0.140625 -1.265625 -0.9375 -1.90625q-0.78125 -0.65625 -2.3125 -0.65625q-1.609375 0 -2.34375 0.59375q-0.734375 0.59375 -0.734375 1.421875q0 0.71875 0.53125 1.171875q0.5 0.46875 2.65625 0.96875q2.15625 0.484375 2.953125 0.84375q1.171875 0.53125 1.71875 1.359375q0.5625 0.828125 0.5625 1.90625q0 1.0625 -0.609375 2.015625q-0.609375 0.9375 -1.75 1.46875q-1.140625 0.515625 -2.578125 0.515625q-1.8125 0 -3.046875 -0.53125q-1.21875 -0.53125 -1.921875 -1.59375q-0.6875 -1.0625 -0.71875 -2.40625zm19.459198 1.1875l1.6875 0.203125q-0.40625 1.484375 -1.484375 2.3125q-1.078125 0.8125 -2.765625 0.8125q-2.125 0 -3.375 -1.296875q-1.234375 -1.3125 -1.234375 -3.671875q0 -2.453125 1.25 -3.796875q1.265625 -1.34375 3.265625 -1.34375q1.9375 0 3.15625 1.328125q1.234375 1.3125 1.234375 3.703125q0 0.15625 0 0.4375l-7.21875 0q0.09375 1.59375 0.90625 2.453125q0.8125 0.84375 2.015625 0.84375q0.90625 0 1.546875 -0.46875q0.640625 -0.484375 1.015625 -1.515625zm-5.390625 -2.65625l5.40625 0q-0.109375 -1.21875 -0.625 -1.828125q-0.78125 -0.953125 -2.03125 -0.953125q-1.125 0 -1.90625 0.765625q-0.765625 0.75 -0.84375 2.015625zm9.125732 5.765625l0 -9.671875l1.46875 0l0 1.46875q0.5625 -1.03125 1.03125 -1.359375q0.484375 -0.328125 1.0625 -0.328125q0.828125 0 1.6875 0.53125l-0.5625 1.515625q-0.609375 -0.359375 -1.203125 -0.359375q-0.546875 0 -0.96875 0.328125q-0.421875 0.328125 -0.609375 0.890625q-0.28125 0.875 -0.28125 1.921875l0 5.0625l-1.625 0zm8.915802 0l-3.6875 -9.671875l1.734375 0l2.078125 5.796875q0.328125 0.9375 0.625 1.9375q0.203125 -0.765625 0.609375 -1.828125l2.140625 -5.90625l1.6875 0l-3.65625 9.671875l-1.53125 0zm13.265625 -3.109375l1.6875 0.203125q-0.40625 1.484375 -1.484375 2.3125q-1.078125 0.8125 -2.765625 0.8125q-2.125 0 -3.375 -1.296875q-1.234375 -1.3125 -1.234375 -3.671875q0 -2.453125 1.25 -3.796875q1.265625 -1.34375 3.265625 -1.34375q1.9375 0 3.15625 1.328125q1.234375 1.3125 1.234375 3.703125q0 0.15625 0 0.4375l-7.21875 0q0.09375 1.59375 0.90625 2.453125q0.8125 0.84375 2.015625 0.84375q0.90625 0 1.546875 -0.46875q0.640625 -0.484375 1.015625 -1.515625zm-5.390625 -2.65625l5.40625 0q-0.109375 -1.21875 -0.625 -1.828125q-0.78125 -0.953125 -2.03125 -0.953125q-1.125 0 -1.90625 0.765625q-0.765625 0.75 -0.84375 2.015625zm9.125702 5.765625l0 -9.671875l1.46875 0l0 1.46875q0.5625 -1.03125 1.03125 -1.359375q0.484375 -0.328125 1.0625 -0.328125q0.828125 0 1.6875 0.53125l-0.5625 1.515625q-0.609375 -0.359375 -1.203125 -0.359375q-0.546875 0 -0.96875 0.328125q-0.421875 0.328125 -0.609375 0.890625q-0.28125 0.875 -0.28125 1.921875l0 5.0625l-1.625 0z" fill-rule="nonzero"/><path fill="#000000" fill-opacity="0.0" d="m280.29922 405.958l-118.61418 0" fill-rule="evenodd"/><path stroke="#000000" stroke-width="1.0" stroke-linejoin="round" stroke-linecap="butt" d="m280.29922 405.958l-112.61418 0" fill-rule="evenodd"/><path fill="#000000" stroke="#000000" stroke-width="1.0" stroke-linecap="butt" d="m167.68504 404.30627l-4.538101 1.6517334l4.538101 1.6517334z" fill-rule="evenodd"/><path fill="#cfe2f3" d="m48.078953 168.29921l103.02321 0c2.8067474 0 5.4985504 1.1149902 7.4832306 3.0996552c1.9846649 1.9846802 3.0996552 4.676483 3.0996552 7.4832306l0 52.913177c0 5.79834E-4 -4.7302246E-4 0.0010375977 -0.0010375977 0.0010375977l-124.18794 -0.0010375977l0 0c-5.722046E-4 0 -0.001033783 -4.5776367E-4 -0.001033783 -0.0010375977l0.001033783 -52.91214l0 0c0 -5.844757 4.738121 -10.582886 10.58289 -10.582886z" fill-rule="evenodd"/><path stroke="#000000" stroke-width="1.0" stroke-linejoin="round" stroke-linecap="butt" d="m48.078953 168.29921l103.02321 0c2.8067474 0 5.4985504 1.1149902 7.4832306 3.0996552c1.9846649 1.9846802 3.0996552 4.676483 3.0996552 7.4832306l0 52.913177c0 5.79834E-4 -4.7302246E-4 0.0010375977 -0.0010375977 0.0010375977l-124.18794 -0.0010375977l0 0c-5.722046E-4 0 -0.001033783 -4.5776367E-4 -0.001033783 -0.0010375977l0.001033783 -52.91214l0 0c0 -5.844757 4.738121 -10.582886 10.58289 -10.582886z" fill-rule="evenodd"/><path fill="#000000" d="m54.818493 193.22018l1.65625 -0.140625q0.125 1.0 0.546875 1.640625q0.4375 0.640625 1.34375 1.046875q0.921875 0.390625 2.0625 0.390625q1.0 0 1.78125 -0.296875q0.78125 -0.296875 1.15625 -0.8125q0.375 -0.53125 0.375 -1.15625q0 -0.625 -0.375 -1.09375q-0.359375 -0.46875 -1.1875 -0.796875q-0.546875 -0.203125 -2.390625 -0.640625q-1.828125 -0.453125 -2.5625 -0.84375q-0.96875 -0.5 -1.4375 -1.234375q-0.46875 -0.75 -0.46875 -1.671875q0 -1.0 0.578125 -1.875q0.578125 -0.890625 1.671875 -1.34375q1.109375 -0.453125 2.453125 -0.453125q1.484375 0 2.609375 0.484375q1.140625 0.46875 1.7500038 1.40625q0.609375 0.921875 0.65625 2.09375l-1.6875038 0.125q-0.140625 -1.265625 -0.9375 -1.90625q-0.78125 -0.65625 -2.3125 -0.65625q-1.609375 0 -2.34375 0.59375q-0.734375 0.59375 -0.734375 1.421875q0 0.71875 0.53125 1.171875q0.5 0.46875 2.65625 0.96875q2.15625 0.484375 2.953125 0.84375q1.1718788 0.53125 1.7187538 1.359375q0.5625 0.828125 0.5625 1.90625q0 1.0625 -0.609375 2.015625q-0.609375 0.9375 -1.7500038 1.46875q-1.140625 0.515625 -2.578125 0.515625q-1.8125 0 -3.046875 -0.53125q-1.21875 -0.53125 -1.921875 -1.59375q-0.6875 -1.0625 -0.71875 -2.40625zm16.412327 2.828125l0.234375 1.453125q-0.6875 0.140625 -1.234375 0.140625q-0.890625 0 -1.390625 -0.28125q-0.484375 -0.28125 -0.6875 -0.734375q-0.203125 -0.46875 -0.203125 -1.9375l0 -5.578125l-1.203125 0l0 -1.265625l1.203125 0l0 -2.390625l1.625 -0.984375l0 3.375l1.65625 0l0 1.265625l-1.65625 0l0 5.671875q0 0.6875 0.078125 0.890625q0.09375 0.203125 0.28125 0.328125q0.203125 0.109375 0.578125 0.109375q0.265625 0 0.71875 -0.0625zm7.917679 0.28125q-0.921875 0.765625 -1.765625 1.09375q-0.828125 0.3125 -1.796875 0.3125q-1.59375 0 -2.453125 -0.78125q-0.859375 -0.78125 -0.859375 -1.984375q0 -0.71875 0.328125 -1.296875q0.328125 -0.59375 0.84375 -0.9375q0.53125 -0.359375 1.1875 -0.546875q0.46875 -0.125 1.453125 -0.25q1.984375 -0.234375 2.921875 -0.5625q0.015625 -0.34375 0.015625 -0.421875q0 -1.0 -0.46875 -1.421875q-0.625 -0.546875 -1.875 -0.546875q-1.15625 0 -1.703125 0.40625q-0.546875 0.40625 -0.8125 1.421875l-1.609375 -0.21875q0.21875 -1.015625 0.71875 -1.640625q0.5 -0.640625 1.453125 -0.984375q0.953125 -0.34375 2.1875 -0.34375q1.25 0 2.015625 0.296875q0.78125 0.28125 1.140625 0.734375q0.375 0.4375 0.515625 1.109375q0.078125 0.421875 0.078125 1.515625l0 2.1875q0 2.28125 0.109375 2.890625q0.109375 0.59375 0.40625 1.15625l-1.703125 0q-0.265625 -0.515625 -0.328125 -1.1875zm-0.140625 -3.671875q-0.890625 0.375 -2.671875 0.625q-1.015625 0.140625 -1.4375 0.328125q-0.421875 0.1875 -0.65625 0.53125q-0.21875 0.34375 -0.21875 0.78125q0 0.65625 0.5 1.09375q0.5 0.4375 1.453125 0.4375q0.9375 0 1.671875 -0.40625q0.75 -0.421875 1.09375 -1.140625q0.265625 -0.5625 0.265625 -1.640625l0 -0.609375zm7.781967 3.390625l0.234375 1.453125q-0.6875 0.140625 -1.234375 0.140625q-0.890625 0 -1.390625 -0.28125q-0.484375 -0.28125 -0.6875 -0.734375q-0.203125 -0.46875 -0.203125 -1.9375l0 -5.578125l-1.203125 0l0 -1.265625l1.203125 0l0 -2.390625l1.625 -0.984375l0 3.375l1.65625 0l0 1.265625l-1.65625 0l0 5.671875q0 0.6875 0.078125 0.890625q0.09375 0.203125 0.28125 0.328125q0.203125 0.109375 0.578125 0.109375q0.265625 0 0.71875 -0.0625zm1.6051788 -10.0l0 -1.890625l1.640625 0l0 1.890625l-1.640625 0zm0 11.46875l0 -9.671875l1.640625 0l0 9.671875l-1.640625 0zm10.457321 -3.546875l1.609375 0.21875q-0.265625 1.65625 -1.359375 2.609375q-1.078125 0.9375 -2.671875 0.9375q-1.984375 0 -3.1875 -1.296875q-1.203125 -1.296875 -1.203125 -3.71875q0 -1.578125 0.515625 -2.75q0.515625 -1.171875 1.578125 -1.75q1.0625 -0.59375 2.3125 -0.59375q1.578125 0 2.578125 0.796875q1.0 0.796875 1.28125 2.265625l-1.59375 0.234375q-0.234375 -0.96875 -0.8125 -1.453125q-0.578125 -0.5 -1.390625 -0.5q-1.234375 0 -2.015625 0.890625q-0.78125 0.890625 -0.78125 2.8125q0 1.953125 0.75 2.84375q0.75 0.875 1.953125 0.875q0.96875 0 1.609375 -0.59375q0.65625 -0.59375 0.828125 -1.828125zm8.495804 3.546875l0 -13.359375l9.015625 0l0 1.578125l-7.25 0l0 4.140625l6.265625 0l0 1.578125l-6.265625 0l0 6.0625l-1.765625 0zm11.099106 -11.46875l0 -1.890625l1.640625 0l0 1.890625l-1.640625 0zm0 11.46875l0 -9.671875l1.640625 0l0 9.671875l-1.640625 0zm4.097946 0l0 -13.359375l1.640625 0l0 13.359375l-1.640625 0zm10.816696 -3.109375l1.6875 0.203125q-0.40625 1.484375 -1.484375 2.3125q-1.078125 0.8125 -2.765625 0.8125q-2.125 0 -3.375 -1.296875q-1.234375 -1.3125 -1.234375 -3.671875q0 -2.453125 1.25 -3.796875q1.265625 -1.34375 3.265625 -1.34375q1.9375 0 3.15625 1.328125q1.234375 1.3125 1.234375 3.703125q0 0.15625 0 0.4375l-7.21875 0q0.09375 1.59375 0.90625 2.453125q0.8125 0.84375 2.015625 0.84375q0.90625 0 1.546875 -0.46875q0.640625 -0.484375 1.015625 -1.515625zm-5.390625 -2.65625l5.40625 0q-0.109375 -1.21875 -0.625 -1.828125q-0.78125 -0.953125 -2.03125 -0.953125q-1.125 0 -1.90625 0.765625q-0.765625 0.75 -0.84375 2.015625zm8.485092 2.875l1.625 -0.25q0.125 0.96875 0.75 1.5q0.625 0.515625 1.75 0.515625q1.125 0 1.671875 -0.453125q0.546875 -0.46875 0.546875 -1.09375q0 -0.546875 -0.484375 -0.875q-0.328125 -0.21875 -1.671875 -0.546875q-1.8125 -0.46875 -2.515625 -0.796875q-0.6875 -0.328125 -1.046875 -0.90625q-0.359375 -0.59375 -0.359375 -1.3125q0 -0.640625 0.296875 -1.1875q0.296875 -0.5625 0.8125 -0.921875q0.375 -0.28125 1.03125 -0.46875q0.671875 -0.203125 1.421875 -0.203125q1.140625 0 2.0 0.328125q0.859375 0.328125 1.265625 0.890625q0.421875 0.5625 0.578125 1.5l-1.609375 0.21875q-0.109375 -0.75 -0.640625 -1.171875q-0.515625 -0.421875 -1.46875 -0.421875q-1.140625 0 -1.625 0.375q-0.46875 0.375 -0.46875 0.875q0 0.3125 0.1875 0.578125q0.203125 0.265625 0.640625 0.4375q0.234375 0.09375 1.4375 0.421875q1.75 0.453125 2.4375 0.75q0.6875 0.296875 1.078125 0.859375q0.390625 0.5625 0.390625 1.40625q0 0.828125 -0.484375 1.546875q-0.46875 0.71875 -1.375 1.125q-0.90625 0.390625 -2.046875 0.390625q-1.875 0 -2.875 -0.78125q-0.984375 -0.78125 -1.25 -2.328125z" fill-rule="nonzero"/><path fill="#000000" d="m72.330864 223.43893q-1.359375 -1.703125 -2.296875 -4.0q-0.9375 -2.296875 -0.9375 -4.765625q0 -2.15625 0.703125 -4.140625q0.828125 -2.3125 2.53125 -4.59375l1.171875 0q-1.09375 1.890625 -1.453125 2.703125q-0.546875 1.25 -0.875 2.625q-0.390625 1.703125 -0.390625 3.421875q0 4.375 2.71875 8.75l-1.171875 0zm3.290802 -3.921875l0 -13.359375l5.046875 0q1.328125 0 2.03125 0.125q0.96875 0.171875 1.640625 0.640625q0.671875 0.453125 1.078125 1.28125q0.40625 0.828125 0.40625 1.828125q0 1.703125 -1.09375 2.890625q-1.078125 1.171875 -3.921875 1.171875l-3.421875 0l0 5.421875l-1.765625 0zm1.765625 -7.0l3.453125 0q1.71875 0 2.4375 -0.640625q0.71875 -0.640625 0.71875 -1.796875q0 -0.84375 -0.421875 -1.4375q-0.421875 -0.59375 -1.125 -0.78125q-0.4375 -0.125 -1.640625 -0.125l-3.421875 0l0 4.78125zm16.802948 7.0l0 -1.421875q-1.125 1.640625 -3.0625 1.640625q-0.859375 0 -1.609375 -0.328125q-0.734375 -0.328125 -1.09375 -0.828125q-0.359375 -0.5 -0.5 -1.21875q-0.109375 -0.46875 -0.109375 -1.53125l0 -5.984375l1.640625 0l0 5.359375q0 1.28125 0.109375 1.734375q0.15625 0.640625 0.65625 1.015625q0.5 0.375 1.234375 0.375q0.734375 0 1.375 -0.375q0.65625 -0.390625 0.921875 -1.03125q0.265625 -0.65625 0.265625 -1.890625l0 -5.1875l1.640625 0l0 9.671875l-1.46875 0zm5.547592 0l-1.515625 0l0 -13.359375l1.640625 0l0 4.765625q1.046875 -1.296875 2.65625 -1.296875q0.890625 0 1.6875 0.359375q0.796875 0.359375 1.3125 1.015625q0.515625 0.640625 0.796875 1.5625q0.296875 0.921875 0.296875 1.96875q0 2.484375 -1.234375 3.84375q-1.21875 1.359375 -2.953125 1.359375q-1.703125 0 -2.6875 -1.4375l0 1.21875zm-0.015625 -4.90625q0 1.734375 0.484375 2.515625q0.765625 1.265625 2.09375 1.265625q1.078125 0 1.859375 -0.9375q0.78125 -0.9375 0.78125 -2.78125q0 -1.890625 -0.75 -2.796875q-0.75 -0.90625 -1.828125 -0.90625q-1.0625 0 -1.859375 0.9375q-0.78125 0.9375 -0.78125 2.703125zm8.844467 4.90625l0 -13.359375l1.640625 0l0 13.359375l-1.640625 0zm4.191696 -11.46875l0 -1.890625l1.640625 0l0 1.890625l-1.640625 0zm0 11.46875l0 -9.671875l1.640625 0l0 9.671875l-1.640625 0zm10.457321 -3.546875l1.609375 0.21875q-0.265625 1.65625 -1.359375 2.609375q-1.078125 0.9375 -2.671875 0.9375q-1.984375 0 -3.1875 -1.296875q-1.203125 -1.296875 -1.203125 -3.71875q0 -1.578125 0.515625 -2.75q0.515625 -1.171875 1.578125 -1.75q1.0625 -0.59375 2.3125 -0.59375q1.578125 0 2.578125 0.796875q1.0 0.796875 1.28125 2.265625l-1.59375 0.234375q-0.234375 -0.96875 -0.8125 -1.453125q-0.578125 -0.5 -1.390625 -0.5q-1.234375 0 -2.015625 0.890625q-0.78125 0.890625 -0.78125 2.8125q0 1.953125 0.75 2.84375q0.75 0.875 1.953125 0.875q0.96875 0 1.609375 -0.59375q0.65625 -0.59375 0.828125 -1.828125zm4.09375 7.46875l-1.1875 0q2.7343674 -4.375 2.7343674 -8.75q0 -1.71875 -0.390625 -3.390625q-0.3125 -1.375 -0.8749924 -2.625q-0.359375 -0.828125 -1.46875 -2.734375l1.1875 0q1.7031174 2.28125 2.5312424 4.59375q0.6875 1.984375 0.6875 4.140625q0 2.46875 -0.9375 4.765625q-0.9375 2.296875 -2.2812424 4.0z" fill-rule="nonzero"/><path fill="#000000" fill-opacity="0.0" d="m280.29922 200.04724l-118.61418 0" fill-rule="evenodd"/><path stroke="#000000" stroke-width="1.0" stroke-linejoin="round" stroke-linecap="butt" d="m280.29922 200.04724l-112.61418 0" fill-rule="evenodd"/><path fill="#000000" stroke="#000000" stroke-width="1.0" stroke-linecap="butt" d="m167.68504 198.39551l-4.538101 1.6517334l4.538101 1.6517334z" fill-rule="evenodd"/><path fill="#000000" fill-opacity="0.0" d="m455.8609 232.73753l0 140.0945" fill-rule="evenodd"/><path stroke="#000000" stroke-width="1.0" stroke-linejoin="round" stroke-linecap="butt" d="m455.8609 232.73753l0 134.0945" fill-rule="evenodd"/><path fill="#000000" stroke="#000000" stroke-width="1.0" stroke-linecap="butt" d="m454.20917 366.83203l1.6517334 4.538086l1.6517334 -4.538086z" fill-rule="evenodd"/><path fill="#000000" fill-opacity="0.0" d="m333.46194 232.95538l0 140.09448" fill-rule="evenodd"/><path stroke="#000000" stroke-width="1.0" stroke-linejoin="round" stroke-linecap="butt" d="m333.46194 232.95538l0 134.09448" fill-rule="evenodd"/><path fill="#000000" stroke="#000000" stroke-width="1.0" stroke-linecap="butt" d="m331.8102 367.04987l1.6517334 4.538086l1.6517334 -4.538086z" fill-rule="evenodd"/><path fill="#000000" fill-opacity="0.0" d="m297.97638 374.69028l0 -143.811l31.748016 0l0 143.811z" fill-rule="evenodd"/><path fill="#000000" d="m321.3051 343.01917q0.671875 0.78125 0.953125 1.5q0.265625 0.71875 0.265625 1.546875q0 1.375 -0.671875 2.109375q-0.671875 0.734375 -1.703125 0.734375q-0.609375 0 -1.109375 -0.28125q-0.515625 -0.28125 -0.8125 -0.71875q-0.3125 -0.453125 -0.46875 -1.015625q-0.109375 -0.421875 -0.203125 -1.25q-0.203125 -1.703125 -0.484375 -2.515625q-0.296875 0 -0.375 0q-0.859375 0 -1.203125 0.390625q-0.484375 0.546875 -0.484375 1.609375q0 0.984375 0.359375 1.46875q0.34375 0.46875 1.21875 0.6875l-0.1875 1.375q-0.875 -0.1875 -1.421875 -0.609375q-0.546875 -0.4375 -0.828125 -1.25q-0.296875 -0.8125 -0.296875 -1.875q0 -1.0625 0.25 -1.71875q0.25 -0.671875 0.625 -0.984375q0.375 -0.3125 0.953125 -0.4375q0.359375 -0.078125 1.296875 -0.078125l1.875 0q1.96875 0 2.484375 -0.078125q0.515625 -0.09375 1.0 -0.359375l0 1.46875q-0.4375 0.21875 -1.03125 0.28125zm-3.140625 0.109375q0.3125 0.765625 0.53125 2.296875q0.125 0.875 0.28125 1.234375q0.15625 0.359375 0.46875 0.5625q0.296875 0.1875 0.65625 0.1875q0.5625 0 0.9375 -0.421875q0.375 -0.4375 0.375 -1.25q0 -0.8125 -0.34375 -1.4375q-0.359375 -0.640625 -0.984375 -0.9375q-0.46875 -0.234375 -1.40625 -0.234375l-0.515625 0zm4.171875 -9.0390625l-1.21875 0q1.40625 0.96875 1.40625 2.640625q0 0.734375 -0.28125 1.375q-0.28125 0.625 -0.703125 0.9375q-0.4375 0.3125 -1.046875 0.4375q-0.421875 0.078125 -1.3125 0.078125l-5.140625 0l0 -1.40625l4.59375 0q1.109375 0 1.484375 -0.078125q0.5625 -0.140625 0.875 -0.5625q0.3125 -0.4375 0.3125 -1.0625q0 -0.640625 -0.3125 -1.1875q-0.328125 -0.5625 -0.890625 -0.78125q-0.5625 -0.234375 -1.625 -0.234375l-4.4375 0l0 -1.40625l8.296875 0l0 1.25zm-1.265625 -6.5234375l1.25 -0.203125q0.125 0.59375 0.125 1.0625q0 0.765625 -0.234375 1.1875q-0.25 0.421875 -0.640625 0.59375q-0.40625 0.171875 -1.671875 0.171875l-4.765625 0l0 1.03125l-1.09375 0l0 -1.03125l-2.0625 0l-0.84375 -1.40625l2.90625 0l0 -1.40625l1.09375 0l0 1.40625l4.84375 0q0.609375 0 0.78125 -0.0625q0.171875 -0.078125 0.28125 -0.25q0.09375 -0.171875 0.09375 -0.484375q0 -0.234375 -0.0625 -0.609375zm1.265625 -1.3828125l-11.453125 0l0 -1.40625l4.109375 0q-1.140625 -0.984375 -1.140625 -2.484375q0 -0.921875 0.359375 -1.59375q0.359375 -0.6875 1.0 -0.96875q0.640625 -0.296875 1.859375 -0.296875l5.265625 0l0 1.40625l-5.265625 0q-1.046875 0 -1.53125 0.453125q-0.484375 0.453125 -0.484375 1.296875q0 0.625 0.328125 1.171875q0.328125 0.546875 0.890625 0.78125q0.546875 0.234375 1.515625 0.234375l4.546875 0l0 1.40625zm3.1875 -7.5859375l-1.015625 0l0 -9.328125l1.015625 0l0 9.328125zm-3.1875 -10.1953125l-8.296875 0l0 -1.265625l1.25 0q-0.875 -0.484375 -1.15625 -0.890625q-0.28125 -0.40625 -0.28125 -0.90625q0 -0.703125 0.453125 -1.4375l1.296875 0.484375q-0.296875 0.515625 -0.296875 1.03125q0 0.453125 0.28125 0.828125q0.265625 0.359375 0.765625 0.515625q0.75 0.234375 1.640625 0.234375l4.34375 0l0 1.40625zm-2.671875 -11.015625l0.171875 -1.453125q1.28125 0.34375 1.984375 1.28125q0.703125 0.921875 0.703125 2.359375q0 1.828125 -1.125 2.890625q-1.125 1.0625 -3.140625 1.0625q-2.09375 0 -3.25 -1.078125q-1.15625 -1.078125 -1.15625 -2.796875q0 -1.65625 1.140625 -2.703125q1.125 -1.0625 3.171875 -1.0625q0.125 0 0.375 0l0 6.1875q1.375 -0.078125 2.109375 -0.765625q0.71875 -0.703125 0.71875 -1.734375q0 -0.78125 -0.40625 -1.328125q-0.40625 -0.546875 -1.296875 -0.859375zm-2.28125 4.609375l0 -4.625q-1.046875 0.09375 -1.5625 0.53125q-0.8125 0.671875 -0.8125 1.734375q0 0.96875 0.65625 1.640625q0.640625 0.65625 1.71875 0.71875zm8.140625 -13.1171875l-4.078125 0q0.46875 0.328125 0.78125 0.921875q0.296875 0.578125 0.296875 1.25q0 1.46875 -1.171875 2.546875q-1.1875 1.0625 -3.25 1.0625q-1.25 0 -2.234375 -0.4375q-1.0 -0.4375 -1.5 -1.25q-0.515625 -0.828125 -0.515625 -1.8125q0 -1.546875 1.296875 -2.421875l-1.109375 0l0 -1.265625l11.484375 0l0 1.40625zm-7.359375 4.328125q1.59375 0 2.40625 -0.671875q0.796875 -0.671875 0.796875 -1.609375q0 -0.890625 -0.765625 -1.53125q-0.765625 -0.65625 -2.3125 -0.65625q-1.65625 0 -2.484375 0.6875q-0.84375 0.671875 -0.84375 1.59375q0 0.921875 0.78125 1.5625q0.765625 0.625 2.421875 0.625zm4.171875 -13.3828125l-1.21875 0q1.40625 0.96875 1.40625 2.640625q0 0.734375 -0.28125 1.375q-0.28125 0.625 -0.703125 0.9375q-0.4375 0.3125 -1.046875 0.4375q-0.421875 0.078125 -1.3125 0.078125l-5.140625 0l0 -1.40625l4.59375 0q1.109375 0 1.484375 -0.078125q0.5625 -0.140625 0.875 -0.5625q0.3125 -0.4375 0.3125 -1.0625q0 -0.640625 -0.3125 -1.1875q-0.328125 -0.5625 -0.890625 -0.78125q-0.5625 -0.234375 -1.625 -0.234375l-4.4375 0l0 -1.40625l8.296875 0l0 1.25zm-2.671875 -9.1328125l0.171875 -1.453125q1.28125 0.34375 1.984375 1.28125q0.703125 0.921875 0.703125 2.359375q0 1.828125 -1.125 2.890625q-1.125 1.0625 -3.140625 1.0625q-2.09375 0 -3.25 -1.078125q-1.15625 -1.078125 -1.15625 -2.796875q0 -1.65625 1.140625 -2.703125q1.125 -1.0625 3.171875 -1.0625q0.125 0 0.375 0l0 6.1875q1.375 -0.078125 2.109375 -0.765625q0.71875 -0.703125 0.71875 -1.734375q0 -0.78125 -0.40625 -1.328125q-0.40625 -0.546875 -1.296875 -0.859375zm-2.28125 4.609375l0 -4.625q-1.046875 0.09375 -1.5625 0.53125q-0.8125 0.671875 -0.8125 1.734375q0 0.96875 0.65625 1.640625q0.640625 0.65625 1.71875 0.71875zm2.46875 -7.2734375l-0.21875 -1.390625q0.84375 -0.109375 1.296875 -0.640625q0.4375 -0.546875 0.4375 -1.5q0 -0.96875 -0.390625 -1.4375q-0.40625 -0.46875 -0.9375 -0.46875q-0.46875 0 -0.75 0.40625q-0.1875 0.296875 -0.46875 1.4375q-0.390625 1.546875 -0.671875 2.15625q-0.296875 0.59375 -0.796875 0.90625q-0.5 0.296875 -1.109375 0.296875q-0.5625 0 -1.03125 -0.25q-0.46875 -0.25 -0.78125 -0.6875q-0.25 -0.328125 -0.40625 -0.890625q-0.171875 -0.578125 -0.171875 -1.21875q0 -0.984375 0.28125 -1.71875q0.28125 -0.734375 0.765625 -1.078125q0.46875 -0.359375 1.28125 -0.5l0.1875 1.375q-0.640625 0.09375 -1.0 0.546875q-0.359375 0.453125 -0.359375 1.265625q0 0.96875 0.328125 1.390625q0.3125 0.40625 0.734375 0.40625q0.28125 0 0.5 -0.171875q0.21875 -0.171875 0.375 -0.53125q0.078125 -0.21875 0.359375 -1.25q0.390625 -1.484375 0.65625 -2.078125q0.25 -0.59375 0.734375 -0.921875q0.484375 -0.34375 1.203125 -0.34375q0.703125 0 1.328125 0.421875q0.609375 0.40625 0.953125 1.1875q0.34375 0.765625 0.34375 1.734375q0 1.625 -0.671875 2.46875q-0.671875 0.84375 -2.0 1.078125zm1.21875 -11.625l1.25 -0.203125q0.125 0.59375 0.125 1.0625q0 0.765625 -0.234375 1.1875q-0.25 0.421875 -0.640625 0.59375q-0.40625 0.171875 -1.671875 0.171875l-4.765625 0l0 1.03125l-1.09375 0l0 -1.03125l-2.0625 0l-0.84375 -1.40625l2.90625 0l0 -1.40625l1.09375 0l0 1.40625l4.84375 0q0.609375 0 0.78125 -0.0625q0.171875 -0.078125 0.28125 -0.25q0.09375 -0.171875 0.09375 -0.484375q0 -0.234375 -0.0625 -0.609375z" fill-rule="nonzero"/><path fill="#000000" fill-opacity="0.0" d="m324.82153 360.8294l0 -115.65355l42.015747 0l0 115.65355z" fill-rule="evenodd"/><path fill="#000000" d="m349.18152 315.28387l-11.453125 0l0 -1.40625l4.109375 0q-1.140625 -0.984375 -1.140625 -2.484375q0 -0.921875 0.359375 -1.59375q0.359375 -0.6875 1.0 -0.96875q0.640625 -0.296875 1.859375 -0.296875l5.265625 0l0 1.40625l-5.265625 0q-1.046875 0 -1.53125 0.453125q-0.484375 0.453125 -0.484375 1.296875q0 0.625 0.328125 1.171875q0.328125 0.546875 0.890625 0.78125q0.546875 0.234375 1.515625 0.234375l4.546875 0l0 1.40625zm-1.265625 -11.9609375l1.25 -0.203125q0.125 0.59375 0.125 1.0625q0 0.765625 -0.234375 1.1875q-0.25 0.421875 -0.640625 0.59375q-0.40625 0.171875 -1.671875 0.171875l-4.765625 0l0 1.03125l-1.09375 0l0 -1.03125l-2.0625 0l-0.84375 -1.40625l2.90625 0l0 -1.40625l1.09375 0l0 1.40625l4.84375 0q0.609375 0 0.78125 -0.0625q0.171875 -0.078125 0.28125 -0.25q0.09375 -0.171875 0.09375 -0.484375q0 -0.234375 -0.0625 -0.609375zm0 -4.4453125l1.25 -0.203125q0.125 0.59375 0.125 1.0625q0 0.765625 -0.234375 1.1875q-0.25 0.421875 -0.640625 0.59375q-0.40625 0.171875 -1.671875 0.171875l-4.765625 0l0 1.03125l-1.09375 0l0 -1.03125l-2.0625 0l-0.84375 -1.40625l2.90625 0l0 -1.40625l1.09375 0l0 1.40625l4.84375 0q0.609375 0 0.78125 -0.0625q0.171875 -0.078125 0.28125 -0.25q0.09375 -0.171875 0.09375 -0.484375q0 -0.234375 -0.0625 -0.609375zm4.453125 -1.3828125l-11.484375 0l0 -1.28125l1.078125 0q-0.640625 -0.453125 -0.953125 -1.015625q-0.3125 -0.578125 -0.3125 -1.390625q0 -1.0625 0.546875 -1.875q0.546875 -0.8125 1.546875 -1.21875q0.984375 -0.421875 2.171875 -0.421875q1.28125 0 2.296875 0.46875q1.015625 0.453125 1.5625 1.328125q0.546875 0.859375 0.546875 1.828125q0 0.703125 -0.296875 1.265625q-0.296875 0.546875 -0.75 0.90625l4.046875 0l0 1.40625zm-7.296875 -1.265625q1.609375 0 2.375 -0.640625q0.765625 -0.65625 0.765625 -1.578125q0 -0.9375 -0.796875 -1.609375q-0.796875 -0.671875 -2.453125 -0.671875q-1.59375 0 -2.375 0.65625q-0.796875 0.65625 -0.796875 1.5625q0 0.890625 0.84375 1.59375q0.84375 0.6875 2.4375 0.6875z" fill-rule="nonzero"/><path fill="#000000" fill-opacity="0.0" d="m345.66928 99.19685l0 67.244095" fill-rule="evenodd"/><path stroke="#000000" stroke-width="1.0" stroke-linejoin="round" stroke-linecap="butt" d="m345.66928 99.19685l0 61.244095" fill-rule="evenodd"/><path fill="#000000" stroke="#000000" stroke-width="1.0" stroke-linecap="butt" d="m344.01755 160.44095l1.6517334 4.538101l1.6517334 -4.538101z" fill-rule="evenodd"/><path fill="#000000" fill-opacity="0.0" d="m388.75067 99.19685l0 67.244095" fill-rule="evenodd"/><path stroke="#000000" stroke-width="1.0" stroke-linejoin="round" stroke-linecap="butt" d="m388.75067 99.19685l0 61.244095" fill-rule="evenodd"/><path fill="#000000" stroke="#000000" stroke-width="1.0" stroke-linecap="butt" d="m387.09894 160.44095l1.6517334 4.538101l1.6517029 -4.538101z" fill-rule="evenodd"/><path fill="#000000" fill-opacity="0.0" d="m433.70078 99.19685l0 67.244095" fill-rule="evenodd"/><path stroke="#000000" stroke-width="1.0" stroke-linejoin="round" stroke-linecap="butt" d="m433.70078 99.19685l0 61.244095" fill-rule="evenodd"/><path fill="#000000" stroke="#000000" stroke-width="1.0" stroke-linecap="butt" d="m432.04904 160.44095l1.6517334 4.538101l1.6517334 -4.538101z" fill-rule="evenodd"/><path fill="#cfe2f3" d="m300.76355 60.694233l0 0c-1.8276978 -6.968544 4.172943 -13.866978 15.455597 -17.768044c11.282654 -3.9010696 25.868591 -4.1206055 37.56848 -0.5654526l0 0c4.1444397 -4.0518 11.730011 -6.849289 20.462189 -7.54628c8.732178 -0.69699097 17.585358 0.7883835 23.881622 4.0068207l0 0c3.530548 -3.673626 10.46283 -6.1418304 18.336914 -6.5287704c7.8740845 -0.3869381 15.575592 1.3621483 20.371643 4.6265945l0 0c6.3784485 -3.8940315 16.526703 -5.533579 26.053558 -4.2092056c9.526886 1.3243752 16.721252 5.3748055 18.470062 10.3986435l0 0c7.8146667 1.1059227 14.324127 3.9173203 17.846527 7.707821c3.5224304 3.7905006 3.7122498 8.188263 0.52041626 12.057045l0 0c7.6951904 5.1961975 9.49527 12.120071 4.7285156 18.187752c-4.7667236 6.0676804 -15.384186 10.367561 -27.890076 11.295021c-0.088134766 5.6947327 -6.1078186 10.920151 -15.7388 13.6621475c-9.630951 2.7420044 -21.369293 2.5724106 -30.690552 -0.44340515c-3.9703674 6.820427 -15.145599 11.838837 -28.697601 12.887077c-13.552002 1.0482483 -27.0513 -2.0615768 -34.66571 -7.985924c-9.333649 2.9201279 -20.533264 3.761322 -31.072449 2.3338318c-10.539154 -1.4274979 -19.53012 -5.003433 -24.944672 -9.921158l0 0c-9.537811 0.57907104 -18.759583 -1.9847412 -23.088562 -6.4190445c-4.3289795 -4.4342957 -2.8435974 -9.79512 3.7189026 -13.4219055l0 0c-8.507996 -2.5980606 -12.849274 -7.7534714 -10.760071 -12.777885c2.0892334 -5.0244217 10.135559 -8.779293 19.943115 -9.306606z" fill-rule="evenodd"/><path fill="#000000" fill-opacity="0.0" d="m291.39197 83.0473l0 0c4.0149536 1.2260284 8.653137 1.7821884 13.29187 1.5937958m6.075714 18.247597c1.994812 -0.12110901 3.9501038 -0.37757874 5.81546 -0.7627945m50.198853 8.3498c-1.4030151 -1.0916138 -2.5776978 -2.2581024 -3.5040283 -3.4795837m66.86975 -1.4217758l0 0c0.72387695 -1.2434616 1.1928711 -2.523262 1.3991699 -3.8180313m45.028442 -9.40023c0.09384155 -6.0629272 -6.543457 -11.614197 -17.060974 -14.269386m40.22232 -15.212746c-1.7032776 2.064537 -4.303528 3.8959656 -7.596863 5.3506775m-10.768494 -25.116081l0 0c0.29022217 0.8337059 0.42453003 1.6799431 0.40109253 2.5269852m-44.92395 -8.716175l0 0c-1.5911255 0.9713669 -2.9019775 2.056858 -3.8917847 3.2226715m-34.81714 -1.320919l0 0c-0.8479309 0.88228226 -1.4811096 1.8158913 -1.8849487 2.7793198m-42.459503 0.76021576l0 0c2.4756775 0.75226593 4.7660217 1.6576996 6.820709 2.696415m-59.844116 15.6371765l0 0c0.2518921 0.9604454 0.64990234 1.90905 1.1903076 2.836937" fill-rule="evenodd"/><path stroke="#000000" stroke-width="1.0" stroke-linejoin="round" stroke-linecap="butt" d="m300.76355 60.694233l0 0c-1.8276978 -6.968544 4.172943 -13.866978 15.455597 -17.768044c11.282654 -3.9010696 25.868591 -4.1206055 37.56848 -0.5654526l0 0c4.1444397 -4.0518 11.730011 -6.849289 20.462189 -7.54628c8.732178 -0.69699097 17.585358 0.7883835 23.881622 4.0068207l0 0c3.530548 -3.673626 10.46283 -6.1418304 18.336914 -6.5287704c7.8740845 -0.3869381 15.575592 1.3621483 20.371643 4.6265945l0 0c6.3784485 -3.8940315 16.526703 -5.533579 26.053558 -4.2092056c9.526886 1.3243752 16.721252 5.3748055 18.470062 10.3986435l0 0c7.8146667 1.1059227 14.324127 3.9173203 17.846527 7.707821c3.5224304 3.7905006 3.7122498 8.188263 0.52041626 12.057045l0 0c7.6951904 5.1961975 9.49527 12.120071 4.7285156 18.187752c-4.7667236 6.0676804 -15.384186 10.367561 -27.890076 11.295021c-0.088134766 5.6947327 -6.1078186 10.920151 -15.7388 13.6621475c-9.630951 2.7420044 -21.369293 2.5724106 -30.690552 -0.44340515c-3.9703674 6.820427 -15.145599 11.838837 -28.697601 12.887077c-13.552002 1.0482483 -27.0513 -2.0615768 -34.66571 -7.985924c-9.333649 2.9201279 -20.533264 3.761322 -31.072449 2.3338318c-10.539154 -1.4274979 -19.53012 -5.003433 -24.944672 -9.921158l0 0c-9.537811 0.57907104 -18.759583 -1.9847412 -23.088562 -6.4190445c-4.3289795 -4.4342957 -2.8435974 -9.79512 3.7189026 -13.4219055l0 0c-8.507996 -2.5980606 -12.849274 -7.7534714 -10.760071 -12.777885c2.0892334 -5.0244217 10.135559 -8.779293 19.943115 -9.306606z" fill-rule="evenodd"/><path stroke="#000000" stroke-width="1.0" stroke-linejoin="round" stroke-linecap="butt" d="m291.39197 83.0473l0 0c4.0149536 1.2260284 8.653137 1.7821884 13.29187 1.5937958m6.075714 18.247597c1.994812 -0.12110901 3.9501038 -0.37757874 5.81546 -0.7627945m50.198853 8.3498c-1.4030151 -1.0916138 -2.5776978 -2.2581024 -3.5040283 -3.4795837m66.86975 -1.4217758l0 0c0.72387695 -1.2434616 1.1928711 -2.523262 1.3991699 -3.8180313m45.028442 -9.40023c0.09384155 -6.0629272 -6.543457 -11.614197 -17.060974 -14.269386m40.22232 -15.212746c-1.7032776 2.064537 -4.303528 3.8959656 -7.596863 5.3506775m-10.768494 -25.116081l0 0c0.29022217 0.8337059 0.42453003 1.6799431 0.40109253 2.5269852m-44.92395 -8.716175l0 0c-1.5911255 0.9713669 -2.9019775 2.056858 -3.8917847 3.2226715m-34.81714 -1.320919l0 0c-0.8479309 0.88228226 -1.4811096 1.8158913 -1.8849487 2.7793198m-42.459503 0.76021576l0 0c2.4756775 0.75226593 4.7660217 1.6576996 6.820709 2.696415m-59.844116 15.6371765l0 0c0.2518921 0.9604454 0.64990234 1.90905 1.1903076 2.836937" fill-rule="evenodd"/><path fill="#000000" d="m355.68164 80.070595l0 -13.359375l1.765625 0l0 13.359375l-1.765625 0zm4.683319 0l0 -9.671875l1.46875 0l0 1.375q1.0625 -1.59375 3.078125 -1.59375q0.875 0 1.609375 0.3125q0.734375 0.3125 1.09375 0.828125q0.375 0.5 0.515625 1.203125q0.09375 0.453125 0.09375 1.59375l0 5.953125l-1.640625 0l0 -5.890625q0 -1.0 -0.203125 -1.484375q-0.1875 -0.5 -0.671875 -0.796875q-0.484375 -0.296875 -1.140625 -0.296875q-1.046875 0 -1.8125 0.671875q-0.75 0.65625 -0.75 2.515625l0 5.28125l-1.640625 0zm13.953827 -1.46875l0.234375 1.453125q-0.6875 0.140625 -1.234375 0.140625q-0.890625 0 -1.390625 -0.28125q-0.484375 -0.28125 -0.6875 -0.734375q-0.203125 -0.46875 -0.203125 -1.9375l0 -5.578125l-1.203125 0l0 -1.265625l1.203125 0l0 -2.390625l1.625 -0.984375l0 3.375l1.65625 0l0 1.265625l-1.65625 0l0 5.671875q0 0.6875 0.078125 0.890625q0.09375 0.203125 0.28125 0.328125q0.203125 0.109375 0.578125 0.109375q0.265625 0 0.71875 -0.0625zm8.230194 -1.640625l1.6875 0.203125q-0.40625 1.484375 -1.484375 2.3125q-1.078125 0.8125 -2.765625 0.8125q-2.125 0 -3.375 -1.296875q-1.234375 -1.3125 -1.234375 -3.671875q0 -2.453125 1.25 -3.796875q1.265625 -1.34375 3.265625 -1.34375q1.9375 0 3.15625 1.328125q1.234375 1.3125 1.234375 3.703125q0 0.15625 0 0.4375l-7.21875 0q0.09375 1.59375 0.90625 2.453125q0.8125 0.84375 2.015625 0.84375q0.90625 0 1.546875 -0.46875q0.640625 -0.484375 1.015625 -1.515625zm-5.390625 -2.65625l5.40625 0q-0.109375 -1.21875 -0.625 -1.828125q-0.78125 -0.953125 -2.03125 -0.953125q-1.125 0 -1.90625 0.765625q-0.765625 0.75 -0.84375 2.015625zm9.125702 5.765625l0 -9.671875l1.46875 0l0 1.46875q0.5625 -1.03125 1.03125 -1.359375q0.484375 -0.328125 1.0625 -0.328125q0.828125 0 1.6875 0.53125l-0.5625 1.515625q-0.609375 -0.359375 -1.203125 -0.359375q-0.546875 0 -0.96875 0.328125q-0.421875 0.328125 -0.609375 0.890625q-0.28125 0.875 -0.28125 1.921875l0 5.0625l-1.625 0zm6.228302 0l0 -9.671875l1.46875 0l0 1.375q1.0625 -1.59375 3.078125 -1.59375q0.875 0 1.609375 0.3125q0.734375 0.3125 1.09375 0.828125q0.375 0.5 0.515625 1.203125q0.09375 0.453125 0.09375 1.59375l0 5.953125l-1.640625 0l0 -5.890625q0 -1.0 -0.203125 -1.484375q-0.1875 -0.5 -0.671875 -0.796875q-0.484375 -0.296875 -1.140625 -0.296875q-1.046875 0 -1.8125 0.671875q-0.75 0.65625 -0.75 2.515625l0 5.28125l-1.640625 0zm17.000732 -3.109375l1.6875 0.203125q-0.40625 1.484375 -1.484375 2.3125q-1.078125 0.8125 -2.765625 0.8125q-2.125 0 -3.375 -1.296875q-1.234375 -1.3125 -1.234375 -3.671875q0 -2.453125 1.25 -3.796875q1.265625 -1.34375 3.265625 -1.34375q1.9375 0 3.15625 1.328125q1.234375 1.3125 1.234375 3.703125q0 0.15625 0 0.4375l-7.21875 0q0.09375 1.59375 0.90625 2.453125q0.8125 0.84375 2.015625 0.84375q0.90625 0 1.546875 -0.46875q0.640625 -0.484375 1.015625 -1.515625zm-5.390625 -2.65625l5.40625 0q-0.109375 -1.21875 -0.625 -1.828125q-0.78125 -0.953125 -2.03125 -0.953125q-1.125 0 -1.90625 0.765625q-0.765625 0.75 -0.84375 2.015625zm12.719452 4.296875l0.234375 1.453125q-0.6875 0.140625 -1.234375 0.140625q-0.890625 0 -1.390625 -0.28125q-0.484375 -0.28125 -0.6875 -0.734375q-0.203125 -0.46875 -0.203125 -1.9375l0 -5.578125l-1.203125 0l0 -1.265625l1.203125 0l0 -2.390625l1.625 -0.984375l0 3.375l1.65625 0l0 1.265625l-1.65625 0l0 5.671875q0 0.6875 0.078125 0.890625q0.09375 0.203125 0.28125 0.328125q0.203125 0.109375 0.578125 0.109375q0.265625 0 0.71875 -0.0625z" fill-rule="nonzero"/><path fill="#000000" fill-opacity="0.0" d="m333.5433 231.77953l-174.64566 35.96849" fill-rule="evenodd"/><path stroke="#000000" stroke-width="1.0" stroke-linejoin="round" stroke-linecap="butt" d="m333.5433 231.77953l-168.76901 34.758194" fill-rule="evenodd"/><path fill="#000000" stroke="#000000" stroke-width="1.0" stroke-linecap="butt" d="m164.44112 264.91995l-4.1116333 2.5331726l4.778 0.7023926z" fill-rule="evenodd"/><path fill="#cfe2f3" d="m151.10216 299.49606l-103.02321 0c-2.8067589 0 -5.498558 -1.1149902 -7.4832344 -3.0996704c-1.9846764 -1.9846497 -3.0996552 -4.6764526 -3.0996552 -7.4832153l0 -52.913177c0 -5.645752E-4 4.6157837E-4 -0.0010375977 0.001033783 -0.0010375977l124.18794 0.0010375977l0 0c5.645752E-4 0 0.0010375977 4.5776367E-4 0.0010375977 0.0010375977l-0.0010375977 52.91214l0 0c0 5.844757 -4.7381287 10.582886 -10.582886 10.582886z" fill-rule="evenodd"/><path stroke="#000000" stroke-width="1.0" stroke-linejoin="round" stroke-linecap="butt" d="m151.10216 299.49606l-103.02321 0c-2.8067589 0 -5.498558 -1.1149902 -7.4832344 -3.0996704c-1.9846764 -1.9846497 -3.0996552 -4.6764526 -3.0996552 -7.4832153l0 -52.913177c0 -5.645752E-4 4.6157837E-4 -0.0010375977 0.001033783 -0.0010375977l124.18794 0.0010375977l0 0c5.645752E-4 0 0.0010375977 4.5776367E-4 0.0010375977 0.0010375977l-0.0010375977 52.91214l0 0c0 5.844757 -4.7381287 10.582886 -10.582886 10.582886z" fill-rule="evenodd"/><path fill="#000000" fill-opacity="0.0" d="m40.283466 236.37796l118.61418 0l0 62.740143l-118.61418 0z" fill-rule="evenodd"/><path fill="#000000" d="m54.818497 259.00107l1.65625 -0.140625q0.125 1.0 0.546875 1.640625q0.4375 0.640625 1.34375 1.046875q0.921875 0.390625 2.0625 0.390625q1.0 0 1.78125 -0.296875q0.78125 -0.296875 1.15625 -0.8125q0.375 -0.53125 0.375 -1.15625q0 -0.625 -0.375 -1.09375q-0.359375 -0.46875 -1.1875 -0.796875q-0.546875 -0.203125 -2.390625 -0.640625q-1.828125 -0.453125 -2.5625 -0.84375q-0.96875 -0.49998474 -1.4375 -1.2343597q-0.46875 -0.75 -0.46875 -1.671875q0 -1.0 0.578125 -1.875q0.578125 -0.890625 1.671875 -1.34375q1.109375 -0.453125 2.453125 -0.453125q1.484375 0 2.609375 0.484375q1.140625 0.46875 1.75 1.40625q0.609375 0.921875 0.65625 2.09375l-1.6875 0.125q-0.140625 -1.265625 -0.9375 -1.90625q-0.78125 -0.65625 -2.3125 -0.65625q-1.609375 0 -2.34375 0.59375q-0.734375 0.59375 -0.734375 1.421875q0 0.71875 0.53125 1.171875q0.5 0.46875 2.65625 0.96875q2.15625 0.484375 2.953125 0.84373474q1.171875 0.53125 1.71875 1.359375q0.5625 0.828125 0.5625 1.90625q0 1.0625 -0.609375 2.015625q-0.609375 0.9375 -1.75 1.46875q-1.140625 0.515625 -2.578125 0.515625q-1.8125 0 -3.046875 -0.53125q-1.21875 -0.53125 -1.921875 -1.59375q-0.6875 -1.0625 -0.71875 -2.40625zm16.412323 2.828125l0.234375 1.453125q-0.6875 0.140625 -1.234375 0.140625q-0.890625 0 -1.390625 -0.28125q-0.484375 -0.28125 -0.6875 -0.734375q-0.203125 -0.46875 -0.203125 -1.9375l0 -5.5781097l-1.203125 0l0 -1.265625l1.203125 0l0 -2.390625l1.625 -0.984375l0 3.375l1.65625 0l0 1.265625l-1.65625 0l0 5.6718597q0 0.6875 0.078125 0.890625q0.09375 0.203125 0.28125 0.328125q0.203125 0.109375 0.578125 0.109375q0.265625 0 0.71875 -0.0625zm7.917679 0.28125q-0.921875 0.765625 -1.765625 1.09375q-0.828125 0.3125 -1.796875 0.3125q-1.59375 0 -2.453125 -0.78125q-0.859375 -0.78125 -0.859375 -1.984375q0 -0.71875 0.328125 -1.296875q0.328125 -0.59375 0.84375 -0.9375q0.53125 -0.359375 1.1875 -0.546875q0.46875 -0.125 1.453125 -0.25q1.984375 -0.234375 2.921875 -0.5625q0.015625 -0.34375 0.015625 -0.421875q0 -0.99998474 -0.46875 -1.4218597q-0.625 -0.546875 -1.875 -0.546875q-1.15625 0 -1.703125 0.40625q-0.546875 0.40625 -0.8125 1.4218597l-1.609375 -0.21875q0.21875 -1.0156097 0.71875 -1.6406097q0.5 -0.640625 1.453125 -0.984375q0.953125 -0.34375 2.1875 -0.34375q1.25 0 2.015625 0.296875q0.78125 0.28125 1.140625 0.734375q0.375 0.4375 0.515625 1.109375q0.078125 0.421875 0.078125 1.5156097l0 2.1875q0 2.28125 0.109375 2.890625q0.109375 0.59375 0.40625 1.15625l-1.703125 0q-0.265625 -0.515625 -0.328125 -1.1875zm-0.140625 -3.671875q-0.890625 0.375 -2.671875 0.625q-1.015625 0.140625 -1.4375 0.328125q-0.421875 0.1875 -0.65625 0.53125q-0.21875 0.34375 -0.21875 0.78125q0 0.65625 0.5 1.09375q0.5 0.4375 1.453125 0.4375q0.9375 0 1.671875 -0.40625q0.75 -0.421875 1.09375 -1.140625q0.265625 -0.5625 0.265625 -1.640625l0 -0.609375zm7.781967 3.390625l0.234375 1.453125q-0.6875 0.140625 -1.234375 0.140625q-0.890625 0 -1.390625 -0.28125q-0.484375 -0.28125 -0.6875 -0.734375q-0.203125 -0.46875 -0.203125 -1.9375l0 -5.5781097l-1.203125 0l0 -1.265625l1.203125 0l0 -2.390625l1.625 -0.984375l0 3.375l1.65625 0l0 1.265625l-1.65625 0l0 5.6718597q0 0.6875 0.078125 0.890625q0.09375 0.203125 0.28125 0.328125q0.203125 0.109375 0.578125 0.109375q0.265625 0 0.71875 -0.0625zm1.6051788 -9.999985l0 -1.890625l1.640625 0l0 1.890625l-1.640625 0zm0 11.468735l0 -9.67186l1.640625 0l0 9.67186l-1.640625 0zm10.457321 -3.546875l1.609375 0.21875q-0.265625 1.65625 -1.359375 2.609375q-1.078125 0.9375 -2.671875 0.9375q-1.984375 0 -3.1875 -1.296875q-1.203125 -1.296875 -1.203125 -3.71875q0 -1.578125 0.515625 -2.7499847q0.515625 -1.171875 1.578125 -1.75q1.0625 -0.59375 2.3125 -0.59375q1.578125 0 2.578125 0.796875q1.0 0.796875 1.28125 2.2656097l-1.59375 0.234375q-0.234375 -0.96873474 -0.8125 -1.4531097q-0.578125 -0.5 -1.390625 -0.5q-1.234375 0 -2.015625 0.890625q-0.78125 0.89060974 -0.78125 2.8124847q0 1.953125 0.75 2.84375q0.75 0.875 1.953125 0.875q0.96875 0 1.609375 -0.59375q0.65625 -0.59375 0.828125 -1.828125zm8.495804 3.546875l0 -13.35936l9.015625 0l0 1.578125l-7.25 0l0 4.140625l6.265625 0l0 1.5781097l-6.265625 0l0 6.0625l-1.765625 0zm11.099106 -11.468735l0 -1.890625l1.640625 0l0 1.890625l-1.640625 0zm0 11.468735l0 -9.67186l1.640625 0l0 9.67186l-1.640625 0zm4.097946 0l0 -13.35936l1.640625 0l0 13.35936l-1.640625 0zm10.816696 -3.109375l1.6875 0.203125q-0.40625 1.484375 -1.484375 2.3125q-1.078125 0.8125 -2.765625 0.8125q-2.125 0 -3.375 -1.296875q-1.234375 -1.3125 -1.234375 -3.671875q0 -2.453125 1.25 -3.7968597q1.265625 -1.34375 3.265625 -1.34375q1.9375 0 3.15625 1.328125q1.234375 1.3124847 1.234375 3.7031097q0 0.15625 0 0.4375l-7.21875 0q0.09375 1.59375 0.90625 2.453125q0.8125 0.84375 2.015625 0.84375q0.90625 0 1.546875 -0.46875q0.640625 -0.484375 1.015625 -1.515625zm-5.390625 -2.65625l5.40625 0q-0.109375 -1.21875 -0.625 -1.8281097q-0.78125 -0.953125 -2.03125 -0.953125q-1.125 0 -1.90625 0.765625q-0.765625 0.74998474 -0.84375 2.0156097zm8.485092 2.875l1.625 -0.25q0.125 0.96875 0.75 1.5q0.625 0.515625 1.75 0.515625q1.125 0 1.671875 -0.453125q0.546875 -0.46875 0.546875 -1.09375q0 -0.546875 -0.484375 -0.875q-0.328125 -0.21875 -1.671875 -0.546875q-1.8125 -0.46875 -2.515625 -0.796875q-0.6875 -0.328125 -1.046875 -0.90625q-0.359375 -0.59375 -0.359375 -1.3125q0 -0.64060974 0.296875 -1.1874847q0.296875 -0.5625 0.8125 -0.921875q0.375 -0.28125 1.03125 -0.46875q0.671875 -0.203125 1.421875 -0.203125q1.140625 0 2.0 0.328125q0.859375 0.328125 1.265625 0.890625q0.421875 0.5625 0.578125 1.4999847l-1.609375 0.21875q-0.109375 -0.74998474 -0.640625 -1.1718597q-0.515625 -0.421875 -1.46875 -0.421875q-1.140625 0 -1.625 0.375q-0.46875 0.375 -0.46875 0.87498474q0 0.3125 0.1875 0.578125q0.203125 0.265625 0.640625 0.4375q0.234375 0.09375 1.4375 0.421875q1.75 0.453125 2.4375 0.75q0.6875 0.296875 1.078125 0.859375q0.390625 0.5625 0.390625 1.40625q0 0.828125 -0.484375 1.546875q-0.46875 0.71875 -1.375 1.125q-0.90625 0.390625 -2.046875 0.390625q-1.875 0 -2.875 -0.78125q-0.984375 -0.78125 -1.25 -2.328125z" fill-rule="nonzero"/><path fill="#000000" d="m57.810326 289.21982q-1.359375 -1.703125 -2.296875 -4.0q-0.9375 -2.296875 -0.9375 -4.765625q0 -2.15625 0.703125 -4.140625q0.828125 -2.3125 2.53125 -4.59375l1.171875 0q-1.09375 1.890625 -1.453125 2.703125q-0.546875 1.25 -0.875 2.625q-0.390625 1.703125 -0.390625 3.421875q0 4.375 2.71875 8.75l-1.171875 0zm3.290802 -3.921875l0 -13.359375l5.046875 0q1.328125 0 2.03125 0.125q0.96875 0.171875 1.640625 0.640625q0.671875 0.453125 1.078125 1.28125q0.40625 0.828125 0.40625 1.828125q0 1.703125 -1.09375 2.890625q-1.078125 1.171875 -3.921875 1.171875l-3.421875 0l0 5.421875l-1.765625 0zm1.765625 -7.0l3.453125 0q1.71875 0 2.4375 -0.640625q0.71875 -0.640625 0.71875 -1.796875q0 -0.84375 -0.421875 -1.4375q-0.421875 -0.59375 -1.125 -0.78125q-0.4375 -0.125 -1.640625 -0.125l-3.421875 0l0 4.78125zm10.459198 7.0l0 -9.671875l1.46875 0l0 1.46875q0.5625 -1.03125 1.03125 -1.359375q0.484375 -0.328125 1.0625 -0.328125q0.828125 0 1.6875 0.53125l-0.5625 1.515625q-0.609375 -0.359375 -1.203125 -0.359375q-0.546875 0 -0.96875 0.328125q-0.421875 0.328125 -0.609375 0.890625q-0.28125 0.875 -0.28125 1.921875l0 5.0625l-1.625 0zm5.618927 -4.84375q0 -2.6875 1.484375 -3.96875q1.25 -1.078125 3.046875 -1.078125q2.0 0 3.265625 1.3125q1.265625 1.296875 1.265625 3.609375q0 1.859375 -0.5625 2.9375q-0.5625 1.0625 -1.640625 1.65625q-1.0625 0.59375 -2.328125 0.59375q-2.03125 0 -3.28125 -1.296875q-1.25 -1.3125 -1.25 -3.765625zm1.6875 0q0 1.859375 0.796875 2.796875q0.8125 0.921875 2.046875 0.921875q1.21875 0 2.03125 -0.921875q0.8125 -0.9375 0.8125 -2.84375q0 -1.796875 -0.8125 -2.71875q-0.8125 -0.921875 -2.03125 -0.921875q-1.234375 0 -2.046875 0.921875q-0.796875 0.90625 -0.796875 2.765625zm12.875717 3.375l0.234375 1.453125q-0.6875 0.140625 -1.234375 0.140625q-0.890625 0 -1.390625 -0.28125q-0.484375 -0.28125 -0.6875 -0.734375q-0.203125 -0.46875 -0.203125 -1.9375l0 -5.578125l-1.203125 0l0 -1.265625l1.203125 0l0 -2.390625l1.625 -0.984375l0 3.375l1.65625 0l0 1.265625l-1.65625 0l0 5.671875q0 0.6875 0.078125 0.890625q0.09375 0.203125 0.28125 0.328125q0.203125 0.109375 0.578125 0.109375q0.265625 0 0.71875 -0.0625zm8.230179 -1.640625l1.6875 0.203125q-0.40625 1.484375 -1.484375 2.3125q-1.078125 0.8125 -2.765625 0.8125q-2.125 0 -3.375 -1.296875q-1.234375 -1.3125 -1.234375 -3.671875q0 -2.453125 1.25 -3.796875q1.265625 -1.34375 3.265625 -1.34375q1.9375 0 3.15625 1.328125q1.234375 1.3125 1.234375 3.703125q0 0.15625 0 0.4375l-7.21875 0q0.09375 1.59375 0.90625 2.453125q0.8125 0.84375 2.015625 0.84375q0.90625 0 1.546875 -0.46875q0.640625 -0.484375 1.015625 -1.515625zm-5.390625 -2.65625l5.40625 0q-0.109375 -1.21875 -0.625 -1.828125q-0.78125 -0.953125 -2.03125 -0.953125q-1.125 0 -1.90625 0.765625q-0.765625 0.75 -0.84375 2.015625zm15.453835 2.21875l1.609375 0.21875q-0.265625 1.65625 -1.359375 2.609375q-1.078125 0.9375 -2.671875 0.9375q-1.984375 0 -3.1875 -1.296875q-1.203125 -1.296875 -1.203125 -3.71875q0 -1.578125 0.515625 -2.75q0.515625 -1.171875 1.578125 -1.75q1.0625 -0.59375 2.3125 -0.59375q1.578125 0 2.578125 0.796875q1.0 0.796875 1.28125 2.265625l-1.59375 0.234375q-0.234375 -0.96875 -0.8125 -1.453125q-0.578125 -0.5 -1.390625 -0.5q-1.234375 0 -2.015625 0.890625q-0.78125 0.890625 -0.78125 2.8125q0 1.953125 0.75 2.84375q0.75 0.875 1.953125 0.875q0.96875 0 1.609375 -0.59375q0.65625 -0.59375 0.828125 -1.828125zm6.59375 2.078125l0.234375 1.453125q-0.6875 0.140625 -1.234375 0.140625q-0.890625 0 -1.390625 -0.28125q-0.484375 -0.28125 -0.6875 -0.734375q-0.203125 -0.46875 -0.203125 -1.9375l0 -5.578125l-1.203125 0l0 -1.265625l1.203125 0l0 -2.390625l1.625 -0.984375l0 3.375l1.65625 0l0 1.265625l-1.65625 0l0 5.671875q0 0.6875 0.078125 0.890625q0.09375 0.203125 0.28125 0.328125q0.203125 0.109375 0.578125 0.109375q0.265625 0 0.71875 -0.0625zm8.230179 -1.640625l1.6875 0.203125q-0.40625 1.484375 -1.484375 2.3125q-1.078125 0.8125 -2.765625 0.8125q-2.125 0 -3.375 -1.296875q-1.234375 -1.3125 -1.234375 -3.671875q0 -2.453125 1.25 -3.796875q1.265625 -1.34375 3.265625 -1.34375q1.9375 0 3.15625 1.328125q1.234375 1.3125 1.234375 3.703125q0 0.15625 0 0.4375l-7.21875 0q0.09375 1.59375 0.90625 2.453125q0.8125 0.84375 2.015625 0.84375q0.90625 0 1.546875 -0.46875q0.640625 -0.484375 1.015625 -1.515625zm-5.390625 -2.65625l5.40625 0q-0.109375 -1.21875 -0.625 -1.828125q-0.78125 -0.953125 -2.03125 -0.953125q-1.125 0 -1.90625 0.765625q-0.765625 0.75 -0.84375 2.015625zm15.406967 5.765625l0 -1.21875q-0.90625 1.4375 -2.703125 1.4375q-1.15625 0 -2.125 -0.640625q-0.96875 -0.640625 -1.5 -1.78125q-0.53125 -1.140625 -0.53125 -2.625q0 -1.453125 0.484375 -2.625q0.484375 -1.1875 1.4375 -1.8125q0.96875 -0.625 2.171875 -0.625q0.875 0 1.546875 0.375q0.6875 0.359375 1.109375 0.953125l0 -4.796875l1.640625 0l0 13.359375l-1.53125 0zm-5.171875 -4.828125q0 1.859375 0.78125 2.78125q0.78125 0.921875 1.84375 0.921875q1.078125 0 1.828125 -0.875q0.75 -0.890625 0.75 -2.6875q0 -1.984375 -0.765625 -2.90625q-0.765625 -0.9375 -1.890625 -0.9375q-1.078125 0 -1.8125 0.890625q-0.734375 0.890625 -0.734375 2.8125zm10.360092 8.75l-1.1875 0q2.734375 -4.375 2.734375 -8.75q0 -1.71875 -0.390625 -3.390625q-0.3125 -1.375 -0.875 -2.625q-0.359375 -0.828125 -1.46875 -2.734375l1.1875 0q1.703125 2.28125 2.53125 4.59375q0.6875 1.984375 0.6875 4.140625q0 2.46875 -0.9375 4.765625q-0.9375 2.296875 -2.28125 4.0z" fill-rule="nonzero"/><path fill="#cfe2f3" d="m280.29922 178.8821l0 0c0 -5.844757 4.738098 -10.582886 10.582886 -10.582886l218.8342 0c2.8067627 0 5.498596 1.1149902 7.4832764 3.0996552c1.9846191 1.9846802 3.0996094 4.676483 3.0996094 7.4832306l0 42.33029c0 5.8447723 -4.738098 10.582886 -10.582886 10.582886l-218.8342 0c-5.8447876 0 -10.582886 -4.7381134 -10.582886 -10.582886z" fill-rule="evenodd"/><path stroke="#000000" stroke-width="1.0" stroke-linejoin="round" stroke-linecap="butt" d="m280.29922 178.8821l0 0c0 -5.844757 4.738098 -10.582886 10.582886 -10.582886l218.8342 0c2.8067627 0 5.498596 1.1149902 7.4832764 3.0996552c1.9846191 1.9846802 3.0996094 4.676483 3.0996094 7.4832306l0 42.33029c0 5.8447723 -4.738098 10.582886 -10.582886 10.582886l-218.8342 0c-5.8447876 0 -10.582886 -4.7381134 -10.582886 -10.582886z" fill-rule="evenodd"/><path fill="#000000" d="m306.86844 206.96724l0 -13.359375l1.8125 0l7.015625 10.484375l0 -10.484375l1.6875 0l0 13.359375l-1.8125 0l-7.015625 -10.5l0 10.5l-1.6875 0zm19.738586 -5.234375l0 -1.578125l5.65625 0l0 4.953125q-1.296875 1.046875 -2.6875 1.578125q-1.375 0.515625 -2.84375 0.515625q-1.96875 0 -3.578125 -0.84375q-1.609375 -0.84375 -2.421875 -2.4375q-0.8125 -1.59375 -0.8125 -3.5625q0 -1.953125 0.8125 -3.640625q0.8125 -1.6875 2.34375 -2.5q1.53125 -0.828125 3.515625 -0.828125q1.453125 0 2.625 0.46875q1.171875 0.46875 1.828125 1.3125q0.671875 0.828125 1.015625 2.171875l-1.59375 0.4375q-0.296875 -1.015625 -0.75 -1.59375q-0.4375 -0.59375 -1.265625 -0.9375q-0.828125 -0.34375 -1.84375 -0.34375q-1.203125 0 -2.09375 0.375q-0.890625 0.359375 -1.4375 0.96875q-0.53125 0.59375 -0.828125 1.3125q-0.515625 1.234375 -0.515625 2.6875q0 1.78125 0.609375 2.984375q0.625 1.203125 1.796875 1.796875q1.171875 0.578125 2.5 0.578125q1.140625 0 2.234375 -0.4375q1.09375 -0.453125 1.65625 -0.953125l0 -2.484375l-3.921875 0zm8.558289 5.234375l0 -13.359375l1.765625 0l0 13.359375l-1.765625 0zm4.870819 0l0 -13.359375l1.8125 0l7.015625 10.484375l0 -10.484375l1.6875 0l0 13.359375l-1.8125 0l-7.015625 -10.5l0 10.5l-1.6875 0zm12.129181 0l5.171875 -6.953125l-4.5625 -6.40625l2.109375 0l2.421875 3.4375q0.75 1.0625 1.078125 1.625q0.4375 -0.71875 1.046875 -1.515625l2.6875 -3.546875l1.921875 0l-4.6875 6.296875l5.0625 7.0625l-2.1875 0l-3.359375 -4.765625q-0.28125 -0.40625 -0.59375 -0.890625q-0.4375 0.734375 -0.625 1.0l-3.359375 4.65625l-2.125 0zm21.908142 3.921875q-1.359375 -1.703125 -2.296875 -4.0q-0.9375 -2.296875 -0.9375 -4.765625q0 -2.15625 0.703125 -4.140625q0.828125 -2.3125 2.53125 -4.59375l1.171875 0q-1.09375 1.890625 -1.453125 2.703125q-0.546875 1.25 -0.875 2.625q-0.390625 1.703125 -0.390625 3.421875q0 4.375 2.71875 8.75l-1.171875 0zm3.072052 -3.921875l0 -9.671875l1.46875 0l0 1.46875q0.5625 -1.03125 1.03125 -1.359375q0.484375 -0.328125 1.0625 -0.328125q0.828125 0 1.6875 0.53125l-0.5625 1.515625q-0.609375 -0.359375 -1.203125 -0.359375q-0.546875 0 -0.96875 0.328125q-0.421875 0.328125 -0.609375 0.890625q-0.28125 0.875 -0.28125 1.921875l0 5.0625l-1.625 0zm12.853302 -3.109375l1.6875 0.203125q-0.40625 1.484375 -1.484375 2.3125q-1.078125 0.8125 -2.765625 0.8125q-2.125 0 -3.375 -1.296875q-1.234375 -1.3125 -1.234375 -3.671875q0 -2.453125 1.25 -3.796875q1.265625 -1.34375 3.265625 -1.34375q1.9375 0 3.15625 1.328125q1.234375 1.3125 1.234375 3.703125q0 0.15625 0 0.4375l-7.21875 0q0.09375 1.59375 0.90625 2.453125q0.8125 0.84375 2.015625 0.84375q0.90625 0 1.546875 -0.46875q0.640625 -0.484375 1.015625 -1.515625zm-5.390625 -2.65625l5.40625 0q-0.109375 -1.21875 -0.625 -1.828125q-0.78125 -0.953125 -2.03125 -0.953125q-1.125 0 -1.90625 0.765625q-0.765625 0.75 -0.84375 2.015625zm11.828827 5.765625l-3.6875 -9.671875l1.734375 0l2.078125 5.796875q0.328125 0.9375 0.625 1.9375q0.203125 -0.765625 0.609375 -1.828125l2.140625 -5.90625l1.6875 0l-3.65625 9.671875l-1.53125 0zm13.265625 -3.109375l1.6875 0.203125q-0.40625 1.484375 -1.484375 2.3125q-1.078125 0.8125 -2.765625 0.8125q-2.125 0 -3.375 -1.296875q-1.234375 -1.3125 -1.234375 -3.671875q0 -2.453125 1.25 -3.796875q1.265625 -1.34375 3.265625 -1.34375q1.9375 0 3.15625 1.328125q1.234375 1.3125 1.234375 3.703125q0 0.15625 0 0.4375l-7.21875 0q0.09375 1.59375 0.90625 2.453125q0.8125 0.84375 2.015625 0.84375q0.90625 0 1.546875 -0.46875q0.640625 -0.484375 1.015625 -1.515625zm-5.390625 -2.65625l5.40625 0q-0.109375 -1.21875 -0.625 -1.828125q-0.78125 -0.953125 -2.03125 -0.953125q-1.125 0 -1.90625 0.765625q-0.765625 0.75 -0.84375 2.015625zm9.125732 5.765625l0 -9.671875l1.46875 0l0 1.46875q0.5625 -1.03125 1.03125 -1.359375q0.484375 -0.328125 1.0625 -0.328125q0.828125 0 1.6875 0.53125l-0.5625 1.515625q-0.609375 -0.359375 -1.203125 -0.359375q-0.546875 0 -0.96875 0.328125q-0.421875 0.328125 -0.609375 0.890625q-0.28125 0.875 -0.28125 1.921875l0 5.0625l-1.625 0zm5.572052 -2.890625l1.625 -0.25q0.125 0.96875 0.75 1.5q0.625 0.515625 1.75 0.515625q1.125 0 1.671875 -0.453125q0.546875 -0.46875 0.546875 -1.09375q0 -0.546875 -0.484375 -0.875q-0.328125 -0.21875 -1.671875 -0.546875q-1.8125 -0.46875 -2.515625 -0.796875q-0.6875 -0.328125 -1.046875 -0.90625q-0.359375 -0.59375 -0.359375 -1.3125q0 -0.640625 0.296875 -1.1875q0.296875 -0.5625 0.8125 -0.921875q0.375 -0.28125 1.03125 -0.46875q0.671875 -0.203125 1.421875 -0.203125q1.140625 0 2.0 0.328125q0.859375 0.328125 1.265625 0.890625q0.421875 0.5625 0.578125 1.5l-1.609375 0.21875q-0.109375 -0.75 -0.640625 -1.171875q-0.515625 -0.421875 -1.46875 -0.421875q-1.140625 0 -1.625 0.375q-0.46875 0.375 -0.46875 0.875q0 0.3125 0.1875 0.578125q0.203125 0.265625 0.640625 0.4375q0.234375 0.09375 1.4375 0.421875q1.75 0.453125 2.4375 0.75q0.6875 0.296875 1.078125 0.859375q0.390625 0.5625 0.390625 1.40625q0 0.828125 -0.484375 1.546875q-0.46875 0.71875 -1.375 1.125q-0.90625 0.390625 -2.046875 0.390625q-1.875 0 -2.875 -0.78125q-0.984375 -0.78125 -1.25 -2.328125zm16.609375 -0.21875l1.6875 0.203125q-0.40625 1.484375 -1.484375 2.3125q-1.078125 0.8125 -2.765625 0.8125q-2.125 0 -3.375 -1.296875q-1.234375 -1.3125 -1.234375 -3.671875q0 -2.453125 1.25 -3.796875q1.265625 -1.34375 3.265625 -1.34375q1.9375 0 3.15625 1.328125q1.234375 1.3125 1.234375 3.703125q0 0.15625 0 0.4375l-7.21875 0q0.09375 1.59375 0.90625 2.453125q0.8125 0.84375 2.015625 0.84375q0.90625 0 1.546875 -0.46875q0.640625 -0.484375 1.015625 -1.515625zm-5.390625 -2.65625l5.40625 0q-0.109375 -1.21875 -0.625 -1.828125q-0.78125 -0.953125 -2.03125 -0.953125q-1.125 0 -1.90625 0.765625q-0.765625 0.75 -0.84375 2.015625zm14.324646 9.46875l0 -13.375l1.484375 0l0 1.25q0.53125 -0.734375 1.1875 -1.09375q0.671875 -0.375 1.625 -0.375q1.234375 0 2.171875 0.640625q0.953125 0.625 1.4375 1.796875q0.484375 1.15625 0.484375 2.546875q0 1.484375 -0.53125 2.671875q-0.53125 1.1875 -1.546875 1.828125q-1.015625 0.625 -2.140625 0.625q-0.8125 0 -1.46875 -0.34375q-0.65625 -0.34375 -1.0625 -0.875l0 4.703125l-1.640625 0zm1.484375 -8.484375q0 1.859375 0.75 2.765625q0.765625 0.890625 1.828125 0.890625q1.09375 0 1.875 -0.921875q0.78125 -0.9375 0.78125 -2.875q0 -1.84375 -0.765625 -2.765625q-0.75 -0.921875 -1.8125 -0.921875q-1.046875 0 -1.859375 0.984375q-0.796875 0.96875 -0.796875 2.84375zm8.875702 4.78125l0 -9.671875l1.46875 0l0 1.46875q0.5625 -1.03125 1.03125 -1.359375q0.484375 -0.328125 1.0625 -0.328125q0.828125 0 1.6875 0.53125l-0.5625 1.515625q-0.609375 -0.359375 -1.203125 -0.359375q-0.546875 0 -0.96875 0.328125q-0.421875 0.328125 -0.609375 0.890625q-0.28125 0.875 -0.28125 1.921875l0 5.0625l-1.625 0zm5.618927 -4.84375q0 -2.6875 1.484375 -3.96875q1.25 -1.078125 3.046875 -1.078125q2.0 0 3.265625 1.3125q1.265625 1.296875 1.265625 3.609375q0 1.859375 -0.5625 2.9375q-0.5625 1.0625 -1.640625 1.65625q-1.0625 0.59375 -2.328125 0.59375q-2.03125 0 -3.28125 -1.296875q-1.25 -1.3125 -1.25 -3.765625zm1.6875 0q0 1.859375 0.796875 2.796875q0.8125 0.921875 2.046875 0.921875q1.21875 0 2.03125 -0.921875q0.8125 -0.9375 0.8125 -2.84375q0 -1.796875 -0.8125 -2.71875q-0.8125 -0.921875 -2.03125 -0.921875q-1.234375 0 -2.046875 0.921875q-0.796875 0.90625 -0.796875 2.765625zm8.203857 4.84375l3.53125 -5.03125l-3.265625 -4.640625l2.046875 0l1.484375 2.265625q0.421875 0.640625 0.671875 1.078125q0.40625 -0.59375 0.734375 -1.0625l1.640625 -2.28125l1.953125 0l-3.34375 4.546875l3.59375 5.125l-2.015625 0l-1.984375 -3.0l-0.515625 -0.8125l-2.546875 3.8125l-1.984375 0zm10.34375 3.71875l-0.1875 -1.53125q0.546875 0.140625 0.9375 0.140625q0.546875 0 0.875 -0.1875q0.328125 -0.171875 0.546875 -0.5q0.15625 -0.25 0.5 -1.21875q0.046875 -0.140625 0.140625 -0.40625l-3.671875 -9.6875l1.765625 0l2.015625 5.59375q0.390625 1.078125 0.703125 2.25q0.28125 -1.125 0.671875 -2.203125l2.078125 -5.640625l1.640625 0l-3.6875 9.828125q-0.59375 1.609375 -0.921875 2.203125q-0.4375 0.8125 -1.0 1.1875q-0.5625 0.375 -1.34375 0.375q-0.484375 0 -1.0625 -0.203125zm10.484375 0.203125l-1.1875 0q2.734375 -4.375 2.734375 -8.75q0 -1.71875 -0.390625 -3.390625q-0.3125 -1.375 -0.875 -2.625q-0.359375 -0.828125 -1.46875 -2.734375l1.1875 0q1.703125 2.28125 2.53125 4.59375q0.6875 1.984375 0.6875 4.140625q0 2.46875 -0.9375 4.765625q-0.9375 2.296875 -2.28125 4.0z" fill-rule="nonzero"/><path fill="#000000" fill-opacity="0.0" d="m421.43045 377.46457l0 -143.81102l31.748016 0l0 143.81102z" fill-rule="evenodd"/><path fill="#000000" d="m444.7592 338.67233q0.671875 0.78125 0.953125 1.5q0.265625 0.71875 0.265625 1.546875q0 1.375 -0.671875 2.109375q-0.671875 0.734375 -1.703125 0.734375q-0.609375 0 -1.109375 -0.28125q-0.515625 -0.28125 -0.8125 -0.71875q-0.3125 -0.453125 -0.46875 -1.015625q-0.109375 -0.421875 -0.203125 -1.25q-0.203125 -1.703125 -0.484375 -2.515625q-0.296875 0 -0.375 0q-0.859375 0 -1.203125 0.390625q-0.484375 0.546875 -0.484375 1.609375q0 0.984375 0.359375 1.46875q0.34375 0.46875 1.21875 0.6875l-0.1875 1.375q-0.875 -0.1875 -1.421875 -0.609375q-0.546875 -0.4375 -0.828125 -1.25q-0.296875 -0.8125 -0.296875 -1.875q0 -1.0625 0.25 -1.71875q0.25 -0.671875 0.625 -0.984375q0.375 -0.3125 0.953125 -0.4375q0.359375 -0.078125 1.296875 -0.078125l1.875 0q1.96875 0 2.484375 -0.078125q0.515625 -0.09375 1.0 -0.359375l0 1.46875q-0.4375 0.21875 -1.03125 0.28125zm-3.140625 0.109375q0.3125 0.765625 0.53125 2.296875q0.125 0.875 0.28125 1.234375q0.15625 0.359375 0.46875 0.5625q0.296875 0.1875 0.65625 0.1875q0.5625 0 0.9375 -0.421875q0.375 -0.4375 0.375 -1.25q0 -0.8125 -0.34375 -1.4375q-0.359375 -0.640625 -0.984375 -0.9375q-0.46875 -0.234375 -1.40625 -0.234375l-0.515625 0zm7.359375 -3.6015625l-11.484375 0l0 -1.28125l1.078125 0q-0.640625 -0.453125 -0.953125 -1.015625q-0.3125 -0.578125 -0.3125 -1.390625q0 -1.0625 0.546875 -1.875q0.546875 -0.8125 1.546875 -1.21875q0.984375 -0.421875 2.171875 -0.421875q1.28125 0 2.296875 0.46875q1.015625 0.453125 1.5625 1.328125q0.546875 0.859375 0.546875 1.828125q0 0.703125 -0.296875 1.265625q-0.296875 0.546875 -0.75 0.90625l4.046875 0l0 1.40625zm-7.296875 -1.265625q1.609375 0 2.375 -0.640625q0.765625 -0.65625 0.765625 -1.578125q0 -0.9375 -0.796875 -1.609375q-0.796875 -0.671875 -2.453125 -0.671875q-1.59375 0 -2.375 0.65625q-0.796875 0.65625 -0.796875 1.5625q0 0.890625 0.84375 1.59375q0.84375 0.6875 2.4375 0.6875zm-5.734375 -7.6328125l-1.609375 0l0 -1.40625l1.609375 0l0 1.40625zm9.84375 0l-8.296875 0l0 -1.40625l8.296875 0l0 1.40625zm0 -7.984375l-8.296875 0l0 -1.265625l1.25 0q-0.875 -0.484375 -1.15625 -0.890625q-0.28125 -0.40625 -0.28125 -0.90625q0 -0.703125 0.453125 -1.4375l1.296875 0.484375q-0.296875 0.515625 -0.296875 1.03125q0 0.453125 0.28125 0.828125q0.265625 0.359375 0.765625 0.515625q0.75 0.234375 1.640625 0.234375l4.34375 0l0 1.40625zm-2.671875 -11.015625l0.171875 -1.453125q1.28125 0.34375 1.984375 1.28125q0.703125 0.921875 0.703125 2.359375q0 1.828125 -1.125 2.890625q-1.125 1.0625 -3.140625 1.0625q-2.09375 0 -3.25 -1.078125q-1.15625 -1.078125 -1.15625 -2.796875q0 -1.65625 1.140625 -2.703125q1.125 -1.0625 3.171875 -1.0625q0.125 0 0.375 0l0 6.1875q1.375 -0.078125 2.109375 -0.765625q0.71875 -0.703125 0.71875 -1.734375q0 -0.78125 -0.40625 -1.328125q-0.40625 -0.546875 -1.296875 -0.859375zm-2.28125 4.609375l0 -4.625q-1.046875 0.09375 -1.5625 0.53125q-0.8125 0.671875 -0.8125 1.734375q0 0.96875 0.65625 1.640625q0.640625 0.65625 1.71875 0.71875zm8.140625 -13.1171875l-4.078125 0q0.46875 0.328125 0.78125 0.921875q0.296875 0.578125 0.296875 1.25q0 1.46875 -1.171875 2.546875q-1.1875 1.0625 -3.25 1.0625q-1.25 0 -2.234375 -0.4375q-1.0 -0.4375 -1.5 -1.25q-0.515625 -0.828125 -0.515625 -1.8125q0 -1.546875 1.296875 -2.421875l-1.109375 0l0 -1.265625l11.484375 0l0 1.40625zm-7.359375 4.328125q1.59375 0 2.40625 -0.671875q0.796875 -0.671875 0.796875 -1.609375q0 -0.890625 -0.765625 -1.53125q-0.765625 -0.65625 -2.3125 -0.65625q-1.65625 0 -2.484375 0.6875q-0.84375 0.671875 -0.84375 1.59375q0 0.921875 0.78125 1.5625q0.765625 0.625 2.421875 0.625zm4.171875 -13.3828125l-1.21875 0q1.40625 0.96875 1.40625 2.640625q0 0.734375 -0.28125 1.375q-0.28125 0.625 -0.703125 0.9375q-0.4375 0.3125 -1.046875 0.4375q-0.421875 0.078125 -1.3125 0.078125l-5.140625 0l0 -1.40625l4.59375 0q1.109375 0 1.484375 -0.078125q0.5625 -0.140625 0.875 -0.5625q0.3125 -0.4375 0.3125 -1.0625q0 -0.640625 -0.3125 -1.1875q-0.328125 -0.5625 -0.890625 -0.78125q-0.5625 -0.234375 -1.625 -0.234375l-4.4375 0l0 -1.40625l8.296875 0l0 1.25zm-2.671875 -9.1328125l0.171875 -1.453125q1.28125 0.34375 1.984375 1.28125q0.703125 0.921875 0.703125 2.359375q0 1.828125 -1.125 2.890625q-1.125 1.0625 -3.140625 1.0625q-2.09375 0 -3.25 -1.078125q-1.15625 -1.078125 -1.15625 -2.796875q0 -1.65625 1.140625 -2.703125q1.125 -1.0625 3.171875 -1.0625q0.125 0 0.375 0l0 6.1875q1.375 -0.078125 2.109375 -0.765625q0.71875 -0.703125 0.71875 -1.734375q0 -0.78125 -0.40625 -1.328125q-0.40625 -0.546875 -1.296875 -0.859375zm-2.28125 4.609375l0 -4.625q-1.046875 0.09375 -1.5625 0.53125q-0.8125 0.671875 -0.8125 1.734375q0 0.96875 0.65625 1.640625q0.640625 0.65625 1.71875 0.71875zm2.46875 -7.2734375l-0.21875 -1.390625q0.84375 -0.109375 1.296875 -0.640625q0.4375 -0.546875 0.4375 -1.5q0 -0.96875 -0.390625 -1.4375q-0.40625 -0.46875 -0.9375 -0.46875q-0.46875 0 -0.75 0.40625q-0.1875 0.296875 -0.46875 1.4375q-0.390625 1.546875 -0.671875 2.15625q-0.296875 0.59375 -0.796875 0.90625q-0.5 0.296875 -1.109375 0.296875q-0.5625 0 -1.03125 -0.25q-0.46875 -0.25 -0.78125 -0.6875q-0.25 -0.328125 -0.40625 -0.890625q-0.171875 -0.578125 -0.171875 -1.21875q0 -0.984375 0.28125 -1.71875q0.28125 -0.734375 0.765625 -1.078125q0.46875 -0.359375 1.28125 -0.5l0.1875 1.375q-0.640625 0.09375 -1.0 0.546875q-0.359375 0.453125 -0.359375 1.265625q0 0.96875 0.328125 1.390625q0.3125 0.40625 0.734375 0.40625q0.28125 0 0.5 -0.171875q0.21875 -0.171875 0.375 -0.53125q0.078125 -0.21875 0.359375 -1.25q0.390625 -1.484375 0.65625 -2.078125q0.25 -0.59375 0.734375 -0.921875q0.484375 -0.34375 1.203125 -0.34375q0.703125 0 1.328125 0.421875q0.609375 0.40625 0.953125 1.1875q0.34375 0.765625 0.34375 1.734375q0 1.625 -0.671875 2.46875q-0.671875 0.84375 -2.0 1.078125zm1.21875 -11.625l1.25 -0.203125q0.125 0.59375 0.125 1.0625q0 0.765625 -0.234375 1.1875q-0.25 0.421875 -0.640625 0.59375q-0.40625 0.171875 -1.671875 0.171875l-4.765625 0l0 1.03125l-1.09375 0l0 -1.03125l-2.0625 0l-0.84375 -1.40625l2.90625 0l0 -1.40625l1.09375 0l0 1.40625l4.84375 0q0.609375 0 0.78125 -0.0625q0.171875 -0.078125 0.28125 -0.25q0.09375 -0.171875 0.09375 -0.484375q0 -0.234375 -0.0625 -0.609375z" fill-rule="nonzero"/><path fill="#000000" fill-opacity="0.0" d="m448.2756 363.60367l0 -115.653534l42.015747 0l0 115.653534z" fill-rule="evenodd"/><path fill="#000000" d="m472.6356 318.05817l-11.453125 0l0 -1.40625l4.109375 0q-1.140625 -0.984375 -1.140625 -2.484375q0 -0.921875 0.359375 -1.59375q0.359375 -0.6875 1.0 -0.96875q0.640625 -0.296875 1.859375 -0.296875l5.265625 0l0 1.40625l-5.265625 0q-1.046875 0 -1.53125 0.453125q-0.484375 0.453125 -0.484375 1.296875q0 0.625 0.328125 1.171875q0.328125 0.546875 0.890625 0.78125q0.546875 0.234375 1.515625 0.234375l4.546875 0l0 1.40625zm-1.265625 -11.9609375l1.25 -0.203125q0.125 0.59375 0.125 1.0625q0 0.765625 -0.234375 1.1875q-0.25 0.421875 -0.640625 0.59375q-0.40625 0.171875 -1.671875 0.171875l-4.765625 0l0 1.03125l-1.09375 0l0 -1.03125l-2.0625 0l-0.84375 -1.40625l2.90625 0l0 -1.40625l1.09375 0l0 1.40625l4.84375 0q0.609375 0 0.78125 -0.0625q0.171875 -0.078125 0.28125 -0.25q0.09375 -0.171875 0.09375 -0.484375q0 -0.234375 -0.0625 -0.609375zm0 -4.4453125l1.25 -0.203125q0.125 0.59375 0.125 1.0625q0 0.765625 -0.234375 1.1875q-0.25 0.421875 -0.640625 0.59375q-0.40625 0.171875 -1.671875 0.171875l-4.765625 0l0 1.03125l-1.09375 0l0 -1.03125l-2.0625 0l-0.84375 -1.40625l2.90625 0l0 -1.40625l1.09375 0l0 1.40625l4.84375 0q0.609375 0 0.78125 -0.0625q0.171875 -0.078125 0.28125 -0.25q0.09375 -0.171875 0.09375 -0.484375q0 -0.234375 -0.0625 -0.609375zm4.453125 -1.3828125l-11.484375 0l0 -1.28125l1.078125 0q-0.640625 -0.453125 -0.953125 -1.015625q-0.3125 -0.578125 -0.3125 -1.390625q0 -1.0625 0.546875 -1.875q0.546875 -0.8125 1.546875 -1.21875q0.984375 -0.421875 2.171875 -0.421875q1.28125 0 2.296875 0.46875q1.015625 0.453125 1.5625 1.328125q0.546875 0.859375 0.546875 1.828125q0 0.703125 -0.296875 1.265625q-0.296875 0.546875 -0.75 0.90625l4.046875 0l0 1.40625zm-7.296875 -1.265625q1.609375 0 2.375 -0.640625q0.765625 -0.65625 0.765625 -1.578125q0 -0.9375 -0.796875 -1.609375q-0.796875 -0.671875 -2.453125 -0.671875q-1.59375 0 -2.375 0.65625q-0.796875 0.65625 -0.796875 1.5625q0 0.890625 0.84375 1.59375q0.84375 0.6875 2.4375 0.6875z" fill-rule="nonzero"/><path fill="#000000" fill-opacity="0.0" d="m404.5538 131.38846l118.61417 0l0 35.96849l-118.61417 0z" fill-rule="evenodd"/><path fill="#000000" d="m447.57965 155.74846l0 -11.453125l1.40625 0l0 4.109375q0.984375 -1.140625 2.484375 -1.140625q0.921875 0 1.59375 0.359375q0.6875 0.359375 0.96875 1.0q0.296875 0.640625 0.296875 1.859375l0 5.265625l-1.40625 0l0 -5.265625q0 -1.046875 -0.453125 -1.53125q-0.453125 -0.484375 -1.296875 -0.484375q-0.625 0 -1.171875 0.328125q-0.546875 0.328125 -0.78125 0.890625q-0.234375 0.546875 -0.234375 1.515625l0 4.546875l-1.40625 0zm11.9609375 -1.265625l0.203125 1.25q-0.59375 0.125 -1.0625 0.125q-0.765625 0 -1.1875 -0.234375q-0.421875 -0.25 -0.59375 -0.640625q-0.171875 -0.40625 -0.171875 -1.671875l0 -4.765625l-1.03125 0l0 -1.09375l1.03125 0l0 -2.0625l1.40625 -0.84375l0 2.90625l1.40625 0l0 1.09375l-1.40625 0l0 4.84375q0 0.609375 0.0625 0.78125q0.078125 0.171875 0.25 0.28125q0.171875 0.09375 0.484375 0.09375q0.234375 0 0.609375 -0.0625zm4.4453125 0l0.203125 1.25q-0.59375 0.125 -1.0625 0.125q-0.765625 0 -1.1875 -0.234375q-0.421875 -0.25 -0.59375 -0.640625q-0.171875 -0.40625 -0.171875 -1.671875l0 -4.765625l-1.03125 0l0 -1.09375l1.03125 0l0 -2.0625l1.40625 -0.84375l0 2.90625l1.40625 0l0 1.09375l-1.40625 0l0 4.84375q0 0.609375 0.0625 0.78125q0.078125 0.171875 0.25 0.28125q0.171875 0.09375 0.484375 0.09375q0.234375 0 0.609375 -0.0625zm1.3828125 4.453125l0 -11.484375l1.28125 0l0 1.078125q0.453125 -0.640625 1.015625 -0.953125q0.578125 -0.3125 1.390625 -0.3125q1.0625 0 1.875 0.546875q0.8125 0.546875 1.21875 1.546875q0.421875 0.984375 0.421875 2.171875q0 1.28125 -0.46875 2.296875q-0.453125 1.015625 -1.328125 1.5625q-0.859375 0.546875 -1.828125 0.546875q-0.703125 0 -1.265625 -0.296875q-0.546875 -0.296875 -0.90625 -0.75l0 4.046875l-1.40625 0zm1.265625 -7.296875q0 1.609375 0.640625 2.375q0.65625 0.765625 1.578125 0.765625q0.9375 0 1.609375 -0.796875q0.671875 -0.796875 0.671875 -2.453125q0 -1.59375 -0.65625 -2.375q-0.65625 -0.796875 -1.5625 -0.796875q-0.890625 0 -1.59375 0.84375q-0.6875 0.84375 -0.6875 2.4375zm7.0703125 1.625l1.390625 -0.21875q0.109375 0.84375 0.640625 1.296875q0.546875 0.4375 1.5 0.4375q0.96875 0 1.4375 -0.390625q0.46875 -0.40625 0.46875 -0.9375q0 -0.46875 -0.40625 -0.75q-0.296875 -0.1875 -1.4375 -0.46875q-1.546875 -0.390625 -2.15625 -0.671875q-0.59375 -0.296875 -0.90625 -0.796875q-0.296875 -0.5 -0.296875 -1.109375q0 -0.5625 0.25 -1.03125q0.25 -0.46875 0.6875 -0.78125q0.328125 -0.25 0.890625 -0.40625q0.578125 -0.171875 1.21875 -0.171875q0.984375 0 1.71875 0.28125q0.734375 0.28125 1.078125 0.765625q0.359375 0.46875 0.5 1.28125l-1.375 0.1875q-0.09375 -0.640625 -0.546875 -1.0q-0.453125 -0.359375 -1.265625 -0.359375q-0.96875 0 -1.390625 0.328125q-0.40625 0.3125 -0.40625 0.734375q0 0.28125 0.171875 0.5q0.171875 0.21875 0.53125 0.375q0.21875 0.078125 1.25 0.359375q1.484375 0.390625 2.078125 0.65625q0.59375 0.25 0.921875 0.734375q0.34375 0.484375 0.34375 1.203125q0 0.703125 -0.421875 1.328125q-0.40625 0.609375 -1.1875 0.953125q-0.765625 0.34375 -1.734375 0.34375q-1.625 0 -2.46875 -0.671875q-0.84375 -0.671875 -1.078125 -2.0z" fill-rule="nonzero"/><path fill="#000000" fill-opacity="0.0" d="m37.496063 42.36483l242.80316 0l0 65.57481l-242.80316 0z" fill-rule="evenodd"/><path fill="#000000" d="m108.916176 69.28483l0 -13.359375l1.78125 0l0 6.625l6.625 -6.625l2.390625 0l-5.59375 5.421875l5.84375 7.9375l-2.328125 0l-4.765625 -6.765625l-2.171875 2.140625l0 4.625l-1.78125 0zm18.631073 -1.1875q-0.921875 0.765625 -1.765625 1.09375q-0.828125 0.3125 -1.796875 0.3125q-1.59375 0 -2.453125 -0.78125q-0.859375 -0.78125 -0.859375 -1.984375q0 -0.71875 0.328125 -1.296875q0.328125 -0.59375 0.84375 -0.9375q0.53125 -0.359375 1.1875 -0.546875q0.46875 -0.125 1.453125 -0.25q1.984375 -0.234375 2.921875 -0.5625q0.015625 -0.34375 0.015625 -0.421875q0 -1.0 -0.46875 -1.421875q-0.625 -0.546875 -1.875 -0.546875q-1.15625 0 -1.703125 0.40625q-0.546875 0.40625 -0.8125 1.421875l-1.609375 -0.21875q0.21875 -1.015625 0.71875 -1.640625q0.5 -0.640625 1.453125 -0.984375q0.953125 -0.34375 2.1875 -0.34375q1.25 0 2.015625 0.296875q0.7812424 0.28125 1.1406174 0.734375q0.375 0.4375 0.515625 1.109375q0.078125 0.421875 0.078125 1.515625l0 2.1875q0 2.28125 0.109375 2.890625q0.109375 0.59375 0.40625 1.15625l-1.7031174 0q-0.265625 -0.515625 -0.328125 -1.1875zm-0.140625 -3.671875q-0.890625 0.375 -2.671875 0.625q-1.015625 0.140625 -1.4375 0.328125q-0.421875 0.1875 -0.65625 0.53125q-0.21875 0.34375 -0.21875 0.78125q0 0.65625 0.5 1.09375q0.5 0.4375 1.453125 0.4375q0.9375 0 1.671875 -0.40625q0.75 -0.421875 1.09375 -1.140625q0.265625 -0.5625 0.265625 -1.640625l0 -0.609375zm7.7819595 3.390625l0.234375 1.453125q-0.6875 0.140625 -1.234375 0.140625q-0.890625 0 -1.390625 -0.28125q-0.484375 -0.28125 -0.6875 -0.734375q-0.203125 -0.46875 -0.203125 -1.9375l0 -5.578125l-1.203125 0l0 -1.265625l1.203125 0l0 -2.390625l1.625 -0.984375l0 3.375l1.65625 0l0 1.265625l-1.65625 0l0 5.671875q0 0.6875 0.078125 0.890625q0.09375 0.203125 0.28125 0.328125q0.203125 0.109375 0.578125 0.109375q0.265625 0 0.71875 -0.0625zm7.917679 0.28125q-0.921875 0.765625 -1.765625 1.09375q-0.828125 0.3125 -1.796875 0.3125q-1.59375 0 -2.453125 -0.78125q-0.859375 -0.78125 -0.859375 -1.984375q0 -0.71875 0.328125 -1.296875q0.328125 -0.59375 0.84375 -0.9375q0.53125 -0.359375 1.1875 -0.546875q0.46875 -0.125 1.453125 -0.25q1.984375 -0.234375 2.921875 -0.5625q0.015625 -0.34375 0.015625 -0.421875q0 -1.0 -0.46875 -1.421875q-0.625 -0.546875 -1.875 -0.546875q-1.15625 0 -1.703125 0.40625q-0.546875 0.40625 -0.8125 1.421875l-1.609375 -0.21875q0.21875 -1.015625 0.71875 -1.640625q0.5 -0.640625 1.453125 -0.984375q0.953125 -0.34375 2.1875 -0.34375q1.25 0 2.015625 0.296875q0.78125 0.28125 1.140625 0.734375q0.375 0.4375 0.515625 1.109375q0.078125 0.421875 0.078125 1.515625l0 2.1875q0 2.28125 0.109375 2.890625q0.109375 0.59375 0.40625 1.15625l-1.703125 0q-0.265625 -0.515625 -0.328125 -1.1875zm-0.140625 -3.671875q-0.890625 0.375 -2.671875 0.625q-1.015625 0.140625 -1.4375 0.328125q-0.421875 0.1875 -0.65625 0.53125q-0.21875 0.34375 -0.21875 0.78125q0 0.65625 0.5 1.09375q0.5 0.4375 1.453125 0.4375q0.9375 0 1.671875 -0.40625q0.75 -0.421875 1.09375 -1.140625q0.265625 -0.5625 0.265625 -1.640625l0 -0.609375zm4.203842 8.5625l0 -13.375l1.484375 0l0 1.25q0.53125 -0.734375 1.1875 -1.09375q0.671875 -0.375 1.625 -0.375q1.234375 0 2.171875 0.640625q0.953125 0.625 1.4375 1.796875q0.484375 1.15625 0.484375 2.546875q0 1.484375 -0.53125 2.671875q-0.53125 1.1875 -1.546875 1.828125q-1.015625 0.625 -2.140625 0.625q-0.8125 0 -1.46875 -0.34375q-0.65625 -0.34375 -1.0625 -0.875l0 4.703125l-1.640625 0zm1.484375 -8.484375q0 1.859375 0.75 2.765625q0.765625 0.890625 1.828125 0.890625q1.09375 0 1.875 -0.921875q0.78125 -0.9375 0.78125 -2.875q0 -1.84375 -0.765625 -2.765625q-0.75 -0.921875 -1.8125 -0.921875q-1.046875 0 -1.859375 0.984375q-0.796875 0.96875 -0.796875 2.84375zm15.219467 4.78125l0 -1.421875q-1.125 1.640625 -3.0625 1.640625q-0.859375 0 -1.609375 -0.328125q-0.734375 -0.328125 -1.09375 -0.828125q-0.359375 -0.5 -0.5 -1.21875q-0.109375 -0.46875 -0.109375 -1.53125l0 -5.984375l1.640625 0l0 5.359375q0 1.28125 0.109375 1.734375q0.15625 0.640625 0.65625 1.015625q0.5 0.375 1.234375 0.375q0.734375 0 1.375 -0.375q0.65625 -0.390625 0.921875 -1.03125q0.265625 -0.65625 0.265625 -1.890625l0 -5.1875l1.640625 0l0 9.671875l-1.46875 0zm4.0007324 0l0 -13.359375l1.640625 0l0 13.359375l-1.640625 0zm7.769806 -1.46875l0.234375 1.453125q-0.6875 0.140625 -1.234375 0.140625q-0.890625 0 -1.390625 -0.28125q-0.484375 -0.28125 -0.6875 -0.734375q-0.203125 -0.46875 -0.203125 -1.9375l0 -5.578125l-1.203125 0l0 -1.265625l1.203125 0l0 -2.390625l1.625 -0.984375l0 3.375l1.65625 0l0 1.265625l-1.65625 0l0 5.671875q0 0.6875 0.078125 0.890625q0.09375 0.203125 0.28125 0.328125q0.203125 0.109375 0.578125 0.109375q0.265625 0 0.71875 -0.0625zm4.49292 1.46875l5.125 -13.359375l1.90625 0l5.46875 13.359375l-2.015625 0l-1.546875 -4.046875l-5.59375 0l-1.46875 4.046875l-1.875 0zm3.859375 -5.484375l4.53125 0l-1.40625 -3.703125q-0.625 -1.6875 -0.9375 -2.765625q-0.265625 1.28125 -0.71875 2.546875l-1.46875 3.921875zm10.052948 5.484375l0 -13.359375l5.046875 0q1.328125 0 2.03125 0.125q0.96875 0.171875 1.640625 0.640625q0.671875 0.453125 1.078125 1.28125q0.40625 0.828125 0.40625 1.828125q0 1.703125 -1.09375 2.890625q-1.078125 1.171875 -3.921875 1.171875l-3.421875 0l0 5.421875l-1.765625 0zm1.765625 -7.0l3.453125 0q1.71875 0 2.4375 -0.640625q0.71875 -0.640625 0.71875 -1.796875q0 -0.84375 -0.421875 -1.4375q-0.421875 -0.59375 -1.125 -0.78125q-0.4375 -0.125 -1.640625 -0.125l-3.421875 0l0 4.78125zm10.974823 7.0l0 -13.359375l1.765625 0l0 13.359375l-1.765625 0z" fill-rule="nonzero"/><path fill="#000000" d="m109.09665 91.28483l5.125 -13.359375l1.90625 0l5.46875 13.359375l-2.015625 0l-1.546875 -4.046875l-5.59375 0l-1.46875 4.046875l-1.875 0zm3.859375 -5.484375l4.53125 0l-1.40625 -3.703125q-0.625 -1.6875 -0.9375 -2.765625q-0.265625 1.28125 -0.71875 2.546875l-1.46875 3.921875zm9.834198 5.484375l0 -9.671875l1.46875 0l0 1.46875q0.5625 -1.03125 1.03125 -1.359375q0.484375 -0.328125 1.0625 -0.328125q0.828125 0 1.6875 0.53125l-0.5625 1.515625q-0.609375 -0.359375 -1.203125 -0.359375q-0.546875 0 -0.96875 0.328125q-0.421875 0.328125 -0.609375 0.890625q-0.28125 0.875 -0.28125 1.921875l0 5.0625l-1.625 0zm12.540802 -3.546875l1.609375 0.21875q-0.265625 1.65625 -1.359375 2.609375q-1.078125 0.9375 -2.671875 0.9375q-1.984375 0 -3.1875 -1.296875q-1.203125 -1.296875 -1.203125 -3.71875q0 -1.578125 0.515625 -2.75q0.515625 -1.171875 1.578125 -1.75q1.0625 -0.59375 2.3125 -0.59375q1.578125 0 2.578125 0.796875q1.0 0.796875 1.28125 2.265625l-1.59375 0.234375q-0.234375 -0.96875 -0.8125 -1.453125q-0.578125 -0.5 -1.390625 -0.5q-1.234375 0 -2.015625 0.890625q-0.78125 0.890625 -0.78125 2.8125q0 1.953125 0.75 2.84375q0.75 0.875 1.953125 0.875q0.96875 0 1.609375 -0.59375q0.65625 -0.59375 0.828125 -1.828125zm3.015625 3.546875l0 -13.359375l1.640625 0l0 4.796875q1.140625 -1.328125 2.890625 -1.328125q1.078125 0 1.859375 0.421875q0.796875 0.421875 1.140625 1.171875q0.34375 0.75 0.34375 2.171875l0 6.125l-1.640625 0l0 -6.125q0 -1.234375 -0.53125 -1.796875q-0.53125 -0.5625 -1.515625 -0.5625q-0.71875 0 -1.359375 0.390625q-0.640625 0.375 -0.921875 1.015625q-0.265625 0.640625 -0.265625 1.78125l0 5.296875l-1.640625 0zm10.375717 -11.46875l0 -1.890625l1.640625 0l0 1.890625l-1.640625 0zm0 11.46875l0 -9.671875l1.640625 0l0 9.671875l-1.640625 0zm7.722946 -1.46875l0.234375 1.453125q-0.6875 0.140625 -1.234375 0.140625q-0.890625 0 -1.390625 -0.28125q-0.484375 -0.28125 -0.6875 -0.734375q-0.203125 -0.46875 -0.203125 -1.9375l0 -5.578125l-1.203125 0l0 -1.265625l1.203125 0l0 -2.390625l1.625 -0.984375l0 3.375l1.65625 0l0 1.265625l-1.65625 0l0 5.671875q0 0.6875 0.078125 0.890625q0.09375 0.203125 0.28125 0.328125q0.203125 0.109375 0.578125 0.109375q0.265625 0 0.71875 -0.0625zm8.230179 -1.640625l1.6875 0.203125q-0.40625 1.484375 -1.484375 2.3125q-1.078125 0.8125 -2.765625 0.8125q-2.125 0 -3.375 -1.296875q-1.234375 -1.3125 -1.234375 -3.671875q0 -2.453125 1.25 -3.796875q1.265625 -1.34375 3.265625 -1.34375q1.9375 0 3.15625 1.328125q1.234375 1.3125 1.234375 3.703125q0 0.15625 0 0.4375l-7.21875 0q0.09375 1.59375 0.90625 2.453125q0.8125 0.84375 2.015625 0.84375q0.90625 0 1.546875 -0.46875q0.640625 -0.484375 1.015625 -1.515625zm-5.390625 -2.65625l5.40625 0q-0.109375 -1.21875 -0.625 -1.828125q-0.78125 -0.953125 -2.03125 -0.953125q-1.125 0 -1.90625 0.765625q-0.765625 0.75 -0.84375 2.015625zm15.453842 2.21875l1.609375 0.21875q-0.265625 1.65625 -1.359375 2.609375q-1.078125 0.9375 -2.671875 0.9375q-1.984375 0 -3.1875 -1.296875q-1.203125 -1.296875 -1.203125 -3.71875q0 -1.578125 0.515625 -2.75q0.515625 -1.171875 1.578125 -1.75q1.0625 -0.59375 2.3125 -0.59375q1.578125 0 2.578125 0.796875q1.0 0.796875 1.28125 2.265625l-1.59375 0.234375q-0.234375 -0.96875 -0.8125 -1.453125q-0.578125 -0.5 -1.390625 -0.5q-1.234375 0 -2.015625 0.890625q-0.78125 0.890625 -0.78125 2.8125q0 1.953125 0.75 2.84375q0.75 0.875 1.953125 0.875q0.96875 0 1.609375 -0.59375q0.65625 -0.59375 0.828125 -1.828125zm6.59375 2.078125l0.234375 1.453125q-0.6875 0.140625 -1.234375 0.140625q-0.890625 0 -1.390625 -0.28125q-0.484375 -0.28125 -0.6875 -0.734375q-0.203125 -0.46875 -0.203125 -1.9375l0 -5.578125l-1.203125 0l0 -1.265625l1.203125 0l0 -2.390625l1.625 -0.984375l0 3.375l1.65625 0l0 1.265625l-1.65625 0l0 5.671875q0 0.6875 0.078125 0.890625q0.09375 0.203125 0.28125 0.328125q0.203125 0.109375 0.578125 0.109375q0.265625 0 0.71875 -0.0625zm7.933304 1.46875l0 -1.421875q-1.125 1.640625 -3.0625 1.640625q-0.859375 0 -1.609375 -0.328125q-0.734375 -0.328125 -1.09375 -0.828125q-0.359375 -0.5 -0.5 -1.21875q-0.109375 -0.46875 -0.109375 -1.53125l0 -5.984375l1.640625 0l0 5.359375q0 1.28125 0.109375 1.734375q0.15625 0.640625 0.65625 1.015625q0.5 0.375 1.234375 0.375q0.734375 0 1.375 -0.375q0.65625 -0.390625 0.921875 -1.03125q0.265625 -0.65625 0.265625 -1.890625l0 -5.1875l1.640625 0l0 9.671875l-1.46875 0zm4.031967 0l0 -9.671875l1.46875 0l0 1.46875q0.5625 -1.03125 1.03125 -1.359375q0.484375 -0.328125 1.0625 -0.328125q0.828125 0 1.6875 0.53125l-0.5625 1.515625q-0.609375 -0.359375 -1.203125 -0.359375q-0.546875 0 -0.96875 0.328125q-0.421875 0.328125 -0.609375 0.890625q-0.28125 0.875 -0.28125 1.921875l0 5.0625l-1.625 0zm12.853302 -3.109375l1.6875 0.203125q-0.40625 1.484375 -1.484375 2.3125q-1.078125 0.8125 -2.765625 0.8125q-2.125 0 -3.375 -1.296875q-1.234375 -1.3125 -1.234375 -3.671875q0 -2.453125 1.25 -3.796875q1.265625 -1.34375 3.265625 -1.34375q1.9375 0 3.15625 1.328125q1.234375 1.3125 1.234375 3.703125q0 0.15625 0 0.4375l-7.21875 0q0.09375 1.59375 0.90625 2.453125q0.8125 0.84375 2.015625 0.84375q0.90625 0 1.546875 -0.46875q0.640625 -0.484375 1.015625 -1.515625zm-5.390625 -2.65625l5.40625 0q-0.109375 -1.21875 -0.625 -1.828125q-0.78125 -0.953125 -2.03125 -0.953125q-1.125 0 -1.90625 0.765625q-0.765625 0.75 -0.84375 2.015625z" fill-rule="nonzero"/></g></svg>